<?xml version="1.0" encoding="UTF-8" standalone="no"?>
<!-- Created with Inkscape (http://www.inkscape.org/) -->

<svg
   xmlns:dc="http://purl.org/dc/elements/1.1/"
   xmlns:cc="http://creativecommons.org/ns#"
   xmlns:rdf="http://www.w3.org/1999/02/22-rdf-syntax-ns#"
   xmlns:svg="http://www.w3.org/2000/svg"
   xmlns="http://www.w3.org/2000/svg"
   xmlns:sodipodi="http://sodipodi.sourceforge.net/DTD/sodipodi-0.dtd"
   xmlns:inkscape="http://www.inkscape.org/namespaces/inkscape"
   version="1.0"
   width="300"
   height="240"
   id="svg2"
   inkscape:version="0.48.0 r9654"
   sodipodi:docname="Dot_Product.svg">
  <metadata
     id="metadata37">
    <rdf:RDF>
      <cc:Work
         rdf:about="">
        <dc:format>image/svg+xml</dc:format>
        <dc:type
           rdf:resource="http://purl.org/dc/dcmitype/StillImage" />
        <dc:title></dc:title>
      </cc:Work>
    </rdf:RDF>
  </metadata>
  <sodipodi:namedview
     pagecolor="#ffffff"
     bordercolor="#666666"
     borderopacity="1"
     objecttolerance="10"
     gridtolerance="10"
     guidetolerance="10"
     inkscape:pageopacity="0"
     inkscape:pageshadow="2"
     inkscape:window-width="1680"
     inkscape:window-height="988"
     id="namedview35"
     showgrid="false"
     inkscape:zoom="1.075"
     inkscape:cx="392.06602"
     inkscape:cy="34.968"
     inkscape:window-x="-8"
     inkscape:window-y="-8"
     inkscape:window-maximized="1"
     inkscape:current-layer="svg2"
     inkscape:snap-bbox="true" />
  <defs
     id="defs4">
    <marker
       inkscape:stockid="Arrow1Mstart"
       orient="auto"
       refY="0.0"
       refX="0.0"
       id="marker4620"
       style="overflow:visible">
      <path
         id="path3962"
         d="M 0.0,0.0 L 5.0,-5.0 L -12.5,0.0 L 5.0,5.0 L 0.0,0.0 z "
         style="fill-rule:evenodd;stroke:#000000;stroke-width:1.0pt;marker-start:none"
         transform="scale(0.4) translate(10,0)" />
    </marker>
    <marker
       inkscape:stockid="Arrow1Sstart"
       orient="auto"
       refY="0.0"
       refX="0.0"
       id="marker4415"
       style="overflow:visible">
      <path
         id="path3968"
         d="M 0.0,0.0 L 5.0,-5.0 L -12.5,0.0 L 5.0,5.0 L 0.0,0.0 z "
         style="fill-rule:evenodd;stroke:#000000;stroke-width:1.0pt;marker-start:none"
         transform="scale(0.2) translate(6,0)" />
    </marker>
    <marker
       inkscape:stockid="Arrow1Lstart"
       orient="auto"
       refY="0.0"
       refX="0.0"
       id="Arrow1Lstart"
       style="overflow:visible">
      <path
         id="path3956"
         d="M 0.0,0.0 L 5.0,-5.0 L -12.5,0.0 L 5.0,5.0 L 0.0,0.0 z "
         style="fill-rule:evenodd;stroke:#000000;stroke-width:1.0pt;marker-start:none"
         transform="scale(0.8) translate(12.5,0)" />
    </marker>
    <marker
       refX="0"
       refY="0"
       orient="auto"
       id="StopM"
       style="overflow: visible;">
      <path
         d="M 0,5.65 L 0,-5.65"
         transform="scale(0.4)"
         id="path2870"
         style="fill: none; fill-opacity: 0.75; fill-rule: evenodd; stroke: rgb(0, 0, 0); stroke-width: 1pt;" />
    </marker>
    <marker
       refX="0"
       refY="0"
       orient="auto"
       id="DistanceOut"
       style="overflow: visible;">
      <g
         id="g2816">
        <path
           d="M 0,0 L -2,0"
           id="path2316"
           style="fill: none; stroke: rgb(255, 255, 255); stroke-width: 1.15; stroke-linecap: square;" />
        <path
           d="M 0,0 L -13,4 L -9,0 L -13,-4 L 0,0 z"
           id="path2312"
           style="fill: rgb(0, 0, 0); fill-rule: evenodd; stroke: none;" />
        <path
           d="M 0,-4 L 0,40"
           id="path2314"
           style="fill: none; stroke: rgb(0, 0, 0); stroke-width: 1; stroke-linecap: square;" />
      </g>
    </marker>
    <marker
       refX="0"
       refY="0"
       orient="auto"
       id="DistanceIn"
       style="overflow: visible;">
      <g
         id="g2300">
        <path
           d="M 0,0 L 2,0"
           id="path2306"
           style="fill: none; stroke: rgb(255, 255, 255); stroke-width: 1.15; stroke-linecap: square;" />
        <path
           d="M 0,0 L 13,4 L 9,0 L 13,-4 L 0,0 z"
           id="path2302"
           style="fill: rgb(0, 0, 0); fill-rule: evenodd; stroke: none;" />
        <path
           d="M 0,-4 L 0,40"
           id="path2304"
           style="fill: none; stroke: rgb(0, 0, 0); stroke-width: 1; stroke-linecap: square;" />
      </g>
    </marker>
    <marker
       refX="0"
       refY="0"
       orient="auto"
       id="Arrow1Mend"
       style="overflow: visible;">
      <path
         d="M 0,0 L 5,-5 L -12.5,0 L 5,5 L 0,0 z"
         transform="matrix(-0.4, 0, 0, -0.4, -4, 0)"
         id="path2769"
         style="fill-rule: evenodd; stroke: rgb(0, 0, 0); stroke-width: 1pt; marker-start: none;" />
    </marker>
    <marker
       refX="0"
       refY="0"
       orient="auto"
       id="Arrow1Mstart"
       style="overflow: visible;">
      <path
         d="M 0,0 L 5,-5 L -12.5,0 L 5,5 L 0,0 z"
         transform="matrix(0.4, 0, 0, 0.4, 4, 0)"
         id="path2766"
         style="fill-rule: evenodd; stroke: rgb(0, 0, 0); stroke-width: 1pt; marker-start: none;" />
    </marker>
    <marker
       refX="0"
       refY="0"
       orient="auto"
       id="Arrow1Sstart"
       style="overflow: visible;">
      <path
         d="M 0,0 L 5,-5 L -12.5,0 L 5,5 L 0,0 z"
         transform="matrix(0.2, 0, 0, 0.2, 1.2, 0)"
         id="path2772"
         style="fill-rule: evenodd; stroke: rgb(0, 0, 0); stroke-width: 1pt; marker-start: none;" />
    </marker>
  </defs>
  <g
     id="layer1"
     inkscape:export-filename="C:\Users\Arnaud\Desktop\DotProduct.png"
     inkscape:export-xdpi="47.342262"
     inkscape:export-ydpi="47.342262">
    <path
       d="M 112.35684,20.470637 L 114.34836,29.522627 L 121.18064,6.6658599 L 103.30627,22.462468 L 112.35684,20.470637 z"
       id="path5344"
       style="fill-rule: evenodd; stroke: none; stroke-width: 0.4pt; marker-start: none;" />
    <path
       d="M 273.75302,125.74642 L 268.76485,133.5577 L 289.75081,122.21851 L 265.94297,120.75745 L 273.75302,125.74642 z"
       id="path5346"
       style="fill-rule: evenodd; stroke: none; stroke-width: 0.4pt; marker-start: none;" />
    <path
       d="M 114.82513,16.211978 L 7.1699599,184.6074 L 277.20998,125.06759"
       id="path5335"
       style="opacity: 1; color: rgb(0, 0, 0); fill: none; fill-opacity: 1; fill-rule: evenodd; stroke: rgb(0, 0, 0); stroke-width: 3; stroke-linecap: round; stroke-linejoin: miter; marker: none; stroke-miterlimit: 4; stroke-dasharray: none; stroke-dashoffset: 0pt; stroke-opacity: 1; visibility: visible; display: inline; overflow: visible;" />
    <path
       d="M 40.271942,138.90458 C 49.258252,144.78506 54.832777,153.03409 56.937112,163.56526"
       transform="matrix(1.09214, 0, 0, 1.09231, -11.9488, -4.14351)"
       id="path6149"
       style="color: rgb(0, 0, 0); fill: none; fill-opacity: 1; fill-rule: evenodd; stroke: rgb(0, 0, 0); stroke-width: 2.74669; stroke-linecap: round; stroke-linejoin: round; marker: none; stroke-miterlimit: 4; stroke-dashoffset: 0pt; stroke-opacity: 1; visibility: visible; display: inline; overflow: visible;" />
    <path
       d="M 74.751629,33.096218 L 84.203598,8.4841633 L 87.712411,8.4841633 L 97.785557,33.096218 L 94.075281,33.096218 L 91.204435,25.64209 L 80.913037,25.64209 L 78.210076,33.096218 L 74.751629,33.096218 z M 81.853197,22.989494 L 90.19712,22.989494 L 87.628468,16.173332 C 86.844989,14.10276 86.262985,12.401519 85.882456,11.069604 C 85.569058,12.647751 85.126959,14.214683 84.556158,15.770406 L 81.853197,22.989494 z"
       transform="scale(1.00448, 0.995535)"
       id="text6151"
       style="font-size: 34.383px; font-style: normal; font-variant: normal; font-weight: normal; font-stretch: normal; text-indent: 0pt; text-align: start; text-decoration: none; line-height: 125%; letter-spacing: normal; word-spacing: normal; text-transform: none; direction: ltr; text-anchor: start; color: rgb(0, 0, 0); fill-opacity: 1; fill-rule: evenodd; stroke: none; stroke-width: 3; stroke-linecap: round; stroke-linejoin: round; marker: none; stroke-miterlimit: 4; stroke-dashoffset: 0pt; stroke-opacity: 1; visibility: visible; display: inline; overflow: visible; font-family: Arial;" />
    <path
       d="M 271.81989,160.15189 L 271.81989,135.53983 L 281.05361,135.53983 C 282.93392,135.53986 284.44209,135.78889 285.57813,136.28692 C 286.71414,136.78501 287.60393,137.55168 288.24752,138.58696 C 288.89106,139.62227 289.21284,140.70514 289.21286,141.83555 C 289.21284,142.88765 288.92743,143.87817 288.35664,144.80713 C 287.78581,145.73611 286.924,146.486 285.7712,147.0568 C 287.25977,147.49331 288.40419,148.2376 289.20446,149.28968 C 290.0047,150.34177 290.40483,151.58412 290.40485,153.01674 C 290.40483,154.16956 290.16139,155.24123 289.67454,156.23175 C 289.18766,157.22228 288.58607,157.98616 287.86977,158.52339 C 287.15344,159.06063 286.25525,159.46635 285.17521,159.74057 C 284.09513,160.01478 282.77163,160.15189 281.20471,160.15189 L 271.81989,160.15189 z M 275.07688,145.88159 L 280.39886,145.88159 C 281.84266,145.88161 282.87795,145.78647 283.50474,145.59619 C 284.33296,145.34997 284.95694,144.94145 285.37667,144.37062 C 285.79637,143.79983 286.00622,143.08352 286.00624,142.22169 C 286.00622,141.40466 285.81036,140.68555 285.41864,140.06435 C 285.02689,139.4432 284.46727,139.01789 283.73978,138.78842 C 283.01226,138.559 281.76431,138.44428 279.99593,138.44426 L 275.07688,138.44426 L 275.07688,145.88159 z M 275.07688,157.24746 L 281.20471,157.24746 C 282.25678,157.24746 282.99547,157.20829 283.4208,157.12994 C 284.17067,156.99564 284.79745,156.77179 285.30112,156.4584 C 285.80476,156.14502 286.21888,155.68893 286.54347,155.09013 C 286.86804,154.49134 287.03033,153.80021 287.03034,153.01674 C 287.03033,152.09897 286.79529,151.30152 286.32522,150.62437 C 285.85513,149.94724 285.20317,149.47156 284.36935,149.19734 C 283.53551,148.92314 282.33512,148.78603 280.7682,148.78602 L 275.07688,148.78602 L 275.07688,157.24746 z"
       transform="scale(1.00448, 0.995535)"
       id="text6155"
       style="font-size: 34.383px; font-style: normal; font-variant: normal; font-weight: normal; font-stretch: normal; text-indent: 0pt; text-align: start; text-decoration: none; line-height: 125%; letter-spacing: normal; word-spacing: normal; text-transform: none; direction: ltr; text-anchor: start; color: rgb(0, 0, 0); fill-opacity: 1; fill-rule: evenodd; stroke: none; stroke-width: 3; stroke-linecap: round; stroke-linejoin: round; marker: none; stroke-miterlimit: 4; stroke-dashoffset: 0pt; stroke-opacity: 1; visibility: visible; display: inline; overflow: visible; font-family: Arial;" />
    <path
       d="M 121.85842,7.0868551 L 150.27962,151.58582"
       id="path6159"
       style="opacity: 1; color: rgb(0, 0, 0); fill: none; fill-opacity: 1; fill-rule: evenodd; stroke: rgb(0, 0, 0); stroke-width: 2; stroke-linecap: round; stroke-linejoin: miter; marker: none; stroke-miterlimit: 4; stroke-dasharray: 3, 9; stroke-dashoffset: 0pt; stroke-opacity: 1; visibility: visible; display: inline; overflow: visible;" />
    <path
       d="M 7.2394646,200.43651 L 154.20449,168.16016"
       id="path6161"
       style="color: rgb(0, 0, 0); fill: none; fill-opacity: 1; fill-rule: evenodd; stroke: rgb(0, 0, 0); stroke-width: 2; stroke-linecap: butt; stroke-linejoin: miter; marker: none; stroke-miterlimit: 4; stroke-dashoffset: 0pt; stroke-opacity: 1; visibility: visible; display: inline; overflow: visible;" />
    <path
       d="M 42.515101,229.31739 L 42.515101,197.04974 L 45.150908,197.04974 L 45.150908,229.31739 L 42.515101,229.31739 z M 48.240006,222.08151 L 57.691975,197.46946 L 61.200788,197.46946 L 71.273935,222.08151 L 67.563659,222.08151 L 64.692812,214.62738 L 54.401414,214.62738 L 51.698453,222.08151 L 48.240006,222.08151 z M 55.341575,211.97479 L 63.685498,211.97479 L 61.116845,205.15863 C 60.333366,203.08805 59.751363,201.38681 59.370833,200.0549 C 59.057436,201.63305 58.615337,203.19998 58.044536,204.7557 L 55.341575,211.97479 z M 74.413398,229.31739 L 74.413398,197.04974 L 77.049204,197.04974 L 77.049204,229.31739 L 74.413398,229.31739 z M 103.62552,215.55076 L 106.5971,215.93689 C 106.27251,217.9851 105.44147,219.58841 104.104,220.74682 C 102.7665,221.90523 101.12402,222.48444 99.176552,222.48444 C 96.736605,222.48444 94.775141,221.68698 93.292155,220.09207 C 91.809162,218.49715 91.067668,216.21111 91.067669,213.23393 C 91.067668,211.30885 91.38665,209.6244 92.024618,208.18057 C 92.662581,206.73677 93.633519,205.65391 94.937436,204.93198 C 96.241342,204.21009 97.659976,203.84914 99.19334,203.84912 C 101.12961,203.84914 102.71333,204.3388 103.94451,205.31812 C 105.17565,206.29747 105.96472,207.68812 106.3117,209.49008 L 103.3737,209.94337 C 103.09387,208.7458 102.59861,207.84481 101.88791,207.24041 C 101.17718,206.63604 100.31816,206.33384 99.310861,206.33383 C 97.788688,206.33384 96.551931,206.87947 95.600585,207.97071 C 94.649227,209.06198 94.173551,210.78841 94.173556,213.14999 C 94.173551,215.54517 94.632439,217.28558 95.550219,218.37124 C 96.467988,219.4569 97.665572,219.99973 99.142975,219.99973 C 100.32936,219.99973 101.31988,219.63598 102.11455,218.90847 C 102.9092,218.18097 103.41286,217.06173 103.62552,215.55076 L 103.62552,215.55076 z M 108.05771,213.16678 C 108.05771,209.86504 108.97548,207.4195 110.81103,205.83017 C 112.34439,204.50949 114.21351,203.84914 116.41842,203.84912 C 118.86954,203.84914 120.87297,204.65219 122.42873,206.25828 C 123.98445,207.8644 124.76232,210.08329 124.76234,212.91495 C 124.76232,215.20939 124.41816,217.01417 123.72984,218.32927 C 123.0415,219.64437 122.03978,220.66568 120.72469,221.39318 C 119.40957,222.12069 117.97415,222.48444 116.41842,222.48444 C 113.92251,222.48444 111.90508,221.68418 110.36614,220.08367 C 108.82718,218.48316 108.05771,216.17754 108.05771,213.16678 L 108.05771,213.16678 z M 111.16359,213.16678 C 111.16359,215.45003 111.66165,217.15967 112.65778,218.29569 C 113.65389,219.43172 114.90744,219.99973 116.41842,219.99973 C 117.91819,219.99973 119.16614,219.42892 120.16227,218.28729 C 121.15838,217.14568 121.65644,215.40526 121.65646,213.06605 C 121.65644,210.86116 121.15558,209.1907 120.15388,208.05466 C 119.15215,206.91864 117.907,206.35063 116.41842,206.35062 C 114.90744,206.35063 113.65389,206.91585 112.65778,208.04626 C 111.66165,209.17671 111.16359,210.88354 111.16359,213.16678 L 111.16359,213.16678 z M 127.11274,216.75953 L 130.10111,216.28945 C 130.26899,217.48704 130.73627,218.40482 131.50295,219.04278 C 132.26963,219.68075 133.3413,219.99973 134.71797,219.99973 C 136.10581,219.99973 137.13551,219.71712 137.80707,219.15191 C 138.4786,218.58669 138.81437,217.92355 138.81438,217.16246 C 138.81437,216.47973 138.51777,215.9425 137.92459,215.55076 C 137.51046,215.28215 136.48076,214.94078 134.83549,214.52665 C 132.61939,213.96704 131.08324,213.48297 130.22702,213.07444 C 129.3708,212.66593 128.72164,212.10071 128.27955,211.37879 C 127.83745,210.6569 127.6164,209.85944 127.6164,208.98642 C 127.6164,208.19178 127.79827,207.45588 128.16203,206.77872 C 128.52578,206.1016 129.02104,205.53918 129.64782,205.09147 C 130.11789,204.74453 130.75866,204.45073 131.57011,204.21007 C 132.38155,203.96945 133.25176,203.84914 134.18073,203.84912 C 135.57977,203.84914 136.80813,204.0506 137.86583,204.45351 C 138.92349,204.85645 139.70416,205.40208 140.20783,206.09039 C 140.71147,206.77874 141.05844,207.69931 141.24872,208.85211 L 138.29393,209.25504 C 138.15961,208.33728 137.77068,207.62097 137.12713,207.1061 C 136.48356,206.59127 135.57418,206.33384 134.39898,206.33383 C 133.01112,206.33384 132.0206,206.56329 131.42741,207.02216 C 130.83421,207.48106 130.53761,208.01829 130.53761,208.63386 C 130.53761,209.02561 130.66072,209.37817 130.90696,209.69154 C 131.15319,210.01613 131.53932,210.28475 132.06537,210.49739 C 132.36756,210.60933 133.25735,210.86675 134.73476,211.26967 C 136.87249,211.84049 138.36387,212.30777 139.20891,212.67151 C 140.05392,213.03528 140.71707,213.56412 141.19836,214.25804 C 141.67962,214.95197 141.92025,215.81378 141.92027,216.84348 C 141.92025,217.8508 141.62645,218.79935 141.03887,219.68914 C 140.45125,220.57894 139.60343,221.26727 138.4954,221.75414 C 137.38734,222.241 136.13379,222.48444 134.73476,222.48444 C 132.41793,222.48444 130.65233,222.00317 129.43796,221.04062 C 128.22358,220.07808 127.44851,218.65105 127.11274,216.75953 L 127.11274,216.75953 z M 145.42908,213.88869 C 145.42908,209.93779 146.38603,206.13798 148.29993,202.48924 C 150.21382,198.84055 152.72651,197.02738 155.838,197.04974 C 157.77427,196.99381 159.35799,197.65695 160.58917,199.03919 C 161.82031,200.42147 162.43589,202.52844 162.43591,205.36009 C 162.43589,209.56844 161.48174,213.47458 159.57346,217.07852 C 157.66514,220.68247 155.16085,222.48444 152.06057,222.48444 C 150.1019,222.48444 148.50698,221.72336 147.27583,220.20119 C 146.04466,218.67903 145.42908,216.57486 145.42908,213.88869 L 145.42908,213.88869 z M 149.25688,208.65065 L 159.12856,208.65065 C 159.41955,206.93823 159.56505,205.55597 159.56506,204.50387 C 159.56505,202.99292 159.21249,201.78694 158.50738,200.88593 C 157.80225,199.98497 156.86769,199.53448 155.70369,199.53445 C 152.82724,199.53448 150.6783,202.5732 149.25688,208.65065 L 149.25688,208.65065 z M 158.64169,211.16894 L 148.73643,211.16894 C 148.52377,212.67992 148.41744,213.84393 148.41745,214.66096 C 148.41744,216.27267 148.75881,217.56539 149.44155,218.53912 C 150.12428,219.51286 151.05884,219.99973 152.24524,219.99973 C 153.61071,219.99973 154.86145,219.21067 155.99749,217.63254 C 157.1335,216.05442 158.0149,213.89989 158.64169,211.16894 L 158.64169,211.16894 z"
       id="text9601"
       style="font-size: 34.383px; font-style: normal; font-variant: normal; font-weight: normal; font-stretch: normal; text-indent: 0pt; text-align: start; text-decoration: none; line-height: 125%; letter-spacing: normal; word-spacing: normal; text-transform: none; direction: ltr; text-anchor: start; color: rgb(0, 0, 0); fill: rgb(0, 0, 0); fill-opacity: 1; fill-rule: evenodd; stroke: none; stroke-width: 3; stroke-linecap: round; stroke-linejoin: round; marker: none; stroke-miterlimit: 4; stroke-dashoffset: 0pt; stroke-opacity: 1; visibility: visible; display: inline; overflow: visible; font-family: 'Times New Roman';"
       transform="scale(1.00448, 0.995535)" />
    <path
       d="M 46.593946,150.20659 C 46.593944,146.25569 47.550892,142.45588 49.464793,138.80714 C 51.378684,135.15845 53.891372,133.34528 57.002865,133.36764 C 58.939133,133.31171 60.522854,133.97485 61.754033,135.35709 C 62.985177,136.73937 63.600758,138.84633 63.600777,141.67799 C 63.600758,145.88634 62.646608,149.79248 60.738324,153.39642 C 58.830008,157.00037 56.325714,158.80234 53.225435,158.80234 C 51.26676,158.80234 49.671847,158.04126 48.440689,156.51909 C 47.209524,154.99693 46.593944,152.89277 46.593946,150.20659 L 46.593946,150.20659 z M 50.421742,144.96855 L 60.293427,144.96855 C 60.584412,143.25613 60.729913,141.87387 60.72993,140.82177 C 60.729913,139.31082 60.377354,138.10484 59.672249,137.20383 C 58.967114,136.30287 58.032551,135.85237 56.868556,135.85235 C 53.992103,135.85237 51.843167,138.8911 50.421742,144.96855 L 50.421742,144.96855 z M 59.806558,147.48684 L 49.901296,147.48684 C 49.688635,148.99782 49.582308,150.16183 49.582313,150.97886 C 49.582308,152.59057 49.923675,153.88329 50.606416,154.85702 C 51.289145,155.83076 52.223708,156.31763 53.410109,156.31763 C 54.77557,156.31763 56.026318,155.52857 57.162357,153.95044 C 58.29837,152.37232 59.179769,150.21779 59.806558,147.48684 L 59.806558,147.48684 z"
       transform="scale(1.00448, 0.995535)"
       id="text2213"
       style="font-size: 34.383px; font-style: normal; font-variant: normal; font-weight: normal; font-stretch: normal; text-indent: 0pt; text-align: start; text-decoration: none; line-height: 125%; letter-spacing: normal; word-spacing: normal; text-transform: none; direction: ltr; text-anchor: start; color: rgb(0, 0, 0); fill-opacity: 1; fill-rule: evenodd; stroke: none; stroke-width: 3; stroke-linecap: round; stroke-linejoin: round; marker: none; stroke-miterlimit: 4; stroke-dashoffset: 0pt; stroke-opacity: 1; visibility: visible; display: inline; overflow: visible; font-family: Arial;" />
    <path
       d="M 8.2090365,204.8513 L 6.2698927,196.02172"
       id="path2249"
       style="fill: none; fill-opacity: 0.75; fill-rule: evenodd; stroke: rgb(0, 0, 0); stroke-width: 2;" />
    <path
       d="M 155.17406,172.57495 L 153.23492,163.74537"
       id="path2251"
       style="fill: none; fill-opacity: 0.75; fill-rule: evenodd; stroke: rgb(0, 0, 0); stroke-width: 2;" />
  </g>
  <path
     style="fill: none; stroke: rgb(0, 0, 0); stroke-width: 0.691969px; stroke-linecap: butt; stroke-linejoin: miter; stroke-opacity: 1;"
     d="m 145.2703,126.77131 -28.56385,6.19554 6.276,26.95461"
     id="path3022"
     inkscape:connector-curvature="0"
     inkscape:export-filename="C:\Users\Arnaud\Desktop\DotProduct.png"
     inkscape:export-xdpi="47.342262"
     inkscape:export-ydpi="47.342262" />
  <path
     style="fill-rule:evenodd;stroke:none;stroke-width:0.4pt;marker-start:none"
     id="path5344-7"
     d="m 931.29495,127.2165 -4.27936,8.22142 19.90422,-13.15045 -23.84539,0.65082 8.22053,4.27821 z"
     inkscape:connector-curvature="0"
     inkscape:export-filename="C:\Users\Arnaud\Desktop\DotProduct.png"
     inkscape:export-xdpi="47.342262"
     inkscape:export-ydpi="47.342262" />
  <path
     style="fill-rule:evenodd;stroke:none;stroke-width:0.4pt;marker-start:none"
     id="path5346-4"
     d="m 934.56747,131.34695 -4.98817,7.81128 20.98596,-11.33919 -23.80784,-1.46106 7.81005,4.98897 z"
     inkscape:connector-curvature="0"
     inkscape:export-filename="C:\Users\Arnaud\Desktop\DotProduct.png"
     inkscape:export-xdpi="47.342262"
     inkscape:export-ydpi="47.342262" />
  <path
     sodipodi:nodetypes="ccc"
     style="color:#000000;fill:none;stroke:#000000;stroke-width:3;stroke-linecap:round;stroke-linejoin:miter;stroke-miterlimit:4;stroke-opacity:1;stroke-dasharray:none;stroke-dashoffset:0;marker:none;visibility:visible;display:inline;overflow:visible;marker-start:none;marker-mid:none"
     id="path5335-0"
     d="m 936.56981,125.99855 -268.5854,64.20938 270.04002,-59.53981"
     inkscape:connector-curvature="0"
     inkscape:export-filename="C:\Users\Arnaud\Desktop\DotProduct.png"
     inkscape:export-xdpi="47.342262"
     inkscape:export-ydpi="47.342262" />
  <path
     style="font-size:34.38299942px;font-style:normal;font-variant:normal;font-weight:normal;font-stretch:normal;text-indent:0pt;text-align:start;text-decoration:none;line-height:125%;letter-spacing:normal;word-spacing:normal;text-transform:none;direction:ltr;text-anchor:start;color:#000000;fill-opacity:1;fill-rule:evenodd;stroke:none;stroke-width:3;marker:none;visibility:visible;display:inline;overflow:visible;font-family:Arial"
     id="text6151-4"
     d="m 917.29632,117.61874 9.49431,-24.502165 3.52453,0 10.11828,24.502165 -3.7269,0 -2.88371,-7.42085 -10.3375,0 -2.71507,7.42085 -3.47394,0 z m 7.13338,-10.0616 8.3813,0 -2.58016,-6.78573 c -0.78699,-2.061326 -1.3716,-3.754971 -1.75383,-5.080939 -0.3148,1.571101 -0.75888,3.131036 -1.33224,4.679809 l -2.71507,7.18686 z"
     inkscape:connector-curvature="0"
     inkscape:export-filename="C:\Users\Arnaud\Desktop\DotProduct.png"
     inkscape:export-xdpi="47.342262"
     inkscape:export-ydpi="47.342262" />
  <path
     style="font-size:34.38299942px;font-style:normal;font-variant:normal;font-weight:normal;font-stretch:normal;text-indent:0pt;text-align:start;text-decoration:none;line-height:125%;letter-spacing:normal;word-spacing:normal;text-transform:none;direction:ltr;text-anchor:start;color:#000000;fill-opacity:1;fill-rule:evenodd;stroke:none;stroke-width:3;marker:none;visibility:visible;display:inline;overflow:visible;font-family:Arial"
     id="text6155-8"
     d="m 935.82542,180.49502 0,-24.50217 9.27509,0 c 1.88873,3e-5 3.40366,0.24795 4.54479,0.74375 1.1411,0.49587 2.03488,1.25912 2.68135,2.28978 0.64642,1.03068 0.96964,2.10872 0.96966,3.23408 -2e-5,1.0474 -0.28671,2.0335 -0.86005,2.95831 -0.57339,0.92483 -1.43906,1.67138 -2.59703,2.23963 1.49524,0.43456 2.64479,1.17553 3.44865,2.22291 0.80382,1.04739 1.20574,2.28419 1.20576,3.71042 -2e-5,1.14767 -0.24455,2.21455 -0.73358,3.20065 -0.48906,0.98611 -1.09334,1.74658 -1.81285,2.28141 -0.71954,0.53484 -1.62176,0.93875 -2.70664,1.21174 -1.08491,0.27299 -2.41434,0.40949 -3.98828,0.40949 l -9.42687,0 z m 3.27158,-14.20659 5.34583,0 c 1.45027,2e-5 2.49019,-0.0947 3.11979,-0.28412 0.83193,-0.24512 1.45871,-0.65182 1.88032,-1.2201 0.42158,-0.56824 0.63237,-1.28135 0.63239,-2.13933 -2e-5,-0.81339 -0.19676,-1.52928 -0.59023,-2.14771 -0.39351,-0.61838 -0.95564,-1.04179 -1.68639,-1.27023 -0.73078,-0.2284 -1.98432,-0.34261 -3.76062,-0.34263 l -4.94109,0 0,7.40412 z m 0,11.31513 6.15529,0 c 1.05678,0 1.79878,-0.039 2.22602,-0.117 0.75322,-0.1337 1.38281,-0.35655 1.88874,-0.66854 0.5059,-0.31198 0.92187,-0.76604 1.24791,-1.36216 0.32603,-0.59612 0.48905,-1.28416 0.48906,-2.06413 -10e-6,-0.91368 -0.23611,-1.70757 -0.70828,-2.38169 -0.4722,-0.67411 -1.12708,-1.14766 -1.96464,-1.42066 -0.83757,-0.27298 -2.04334,-0.40947 -3.61728,-0.40948 l -5.71682,0 0,8.42366 z"
     inkscape:connector-curvature="0"
     inkscape:export-filename="C:\Users\Arnaud\Desktop\DotProduct.png"
     inkscape:export-xdpi="47.342262"
     inkscape:export-ydpi="47.342262" />
  <path
     style="color:#000000;fill:none;stroke:#000000;stroke-width:2;stroke-linecap:butt;stroke-linejoin:miter;stroke-miterlimit:4;stroke-opacity:1;stroke-dashoffset:0;marker:none;visibility:visible;display:inline;overflow:visible"
     id="path6161-2"
     d="M 668.05391,206.03704 952.49365,140.21423"
     inkscape:connector-curvature="0"
     sodipodi:nodetypes="cc"
     inkscape:export-filename="C:\Users\Arnaud\Desktop\DotProduct.png"
     inkscape:export-xdpi="47.342262"
     inkscape:export-ydpi="47.342262" />
  <path
     style="font-size:34.38299942px;font-style:normal;font-variant:normal;font-weight:normal;font-stretch:normal;text-indent:0pt;text-align:start;text-decoration:none;line-height:125%;letter-spacing:normal;word-spacing:normal;text-transform:none;direction:ltr;text-anchor:start;color:#000000;fill:#000000;fill-opacity:1;fill-rule:evenodd;stroke:none;stroke-width:3;marker:none;visibility:visible;display:inline;overflow:visible;font-family:Times New Roman"
     id="text9601-4"
     d="m 703.52002,233.89401 0,-32.12357 2.64761,0 0,32.12357 -2.64761,0 z m 5.75055,-7.20357 9.49432,-24.50216 3.52453,0 10.11827,24.50216 -3.7269,0 -2.8837,-7.42085 -10.33751,0 -2.71507,7.42085 -3.47394,0 z m 7.13339,-10.06159 8.3813,0 -2.58016,-6.78573 c -0.78699,-2.06133 -1.3716,-3.75498 -1.75384,-5.08094 -0.3148,1.5711 -0.75888,3.13104 -1.33223,4.67981 l -2.71507,7.18686 z m 19.15726,17.26516 0,-32.12357 2.64761,0 0,32.12357 -2.64761,0 z m 29.34299,-13.70516 2.9849,0.38441 c -0.32605,2.03906 -1.16081,3.63521 -2.50427,4.78845 -1.3435,1.15324 -2.99333,1.72986 -4.94953,1.72986 -2.45088,0 -4.42113,-0.7939 -5.91076,-2.38169 -1.48963,-1.58779 -2.23445,-3.86363 -2.23445,-6.82751 0,-1.91649 0.32041,-3.59342 0.96124,-5.0308 0.64082,-1.43735 1.61611,-2.51538 2.92587,-3.23409 1.30974,-0.71866 2.73473,-1.078 4.27497,-1.07802 1.94494,2e-5 3.53576,0.48749 4.77245,1.46244 1.23666,0.97498 2.02926,2.35942 2.3778,4.15333 l -2.95117,0.45127 c -0.28108,-1.19222 -0.77856,-2.08919 -1.49244,-2.69089 -0.71392,-0.60167 -1.57678,-0.90252 -2.5886,-0.90253 -1.52899,1e-5 -2.77129,0.5432 -3.72689,1.62957 -0.95562,1.08639 -1.43343,2.80512 -1.43343,5.15615 0,2.38449 0.46094,4.11713 1.38283,5.19794 0.92188,1.08081 2.12483,1.62122 3.60886,1.62122 1.1917,0 2.18665,-0.36213 2.98488,-1.08639 0.79821,-0.72425 1.30413,-1.83849 1.51774,-3.34272 l 0,0 z m 4.45205,-2.37333 c 0,-3.287 0.92188,-5.72162 2.76565,-7.30386 1.54023,-1.31478 3.41773,-1.97218 5.63251,-1.9722 2.46211,2e-5 4.47451,0.79948 6.03724,2.3984 1.56269,1.59895 2.34405,3.80793 2.34407,6.62695 -2e-5,2.2842 -0.34573,4.08092 -1.03713,5.39015 -0.69142,1.30922 -1.69763,2.32597 -3.01861,3.05023 -1.32102,0.72426 -2.76287,1.08638 -4.32557,1.08638 -2.50709,0 -4.53356,-0.79668 -6.07939,-2.39005 -1.54585,-1.59336 -2.31877,-3.88869 -2.31877,-6.886 l 0,0 z m 3.11979,0 c 0,2.27305 0.50029,3.97506 1.50089,5.10601 1.00057,1.13095 2.25974,1.69643 3.77748,1.69643 1.50649,0 2.76003,-0.56826 3.76063,-1.7048 1.00057,-1.13651 1.50086,-2.86916 1.50088,-5.19792 -2e-5,-2.19505 -0.50312,-3.85805 -1.50931,-4.98902 -1.00622,-1.13095 -2.25695,-1.69642 -3.7522,-1.69643 -1.51774,1e-5 -2.77691,0.56271 -3.77748,1.68807 -1.0006,1.1254 -1.50089,2.82461 -1.50089,5.09766 l 0,0 z m 16.02061,3.5767 3.00175,-0.46798 c 0.16864,1.19225 0.63801,2.10593 1.40812,2.74104 0.77012,0.63512 1.84659,0.95268 3.22943,0.95268 1.39405,0 2.42837,-0.28135 3.10294,-0.84404 0.67453,-0.56269 1.01181,-1.22287 1.01182,-1.98056 -10e-6,-0.67969 -0.29794,-1.21452 -0.89378,-1.60451 -0.41598,-0.26741 -1.4503,-0.60725 -3.10294,-1.01954 -2.22603,-0.55711 -3.76906,-1.03902 -4.62911,-1.44572 -0.86006,-0.40669 -1.51213,-0.96938 -1.9562,-1.68808 -0.44408,-0.71867 -0.66612,-1.51257 -0.66612,-2.38169 0,-0.79109 0.18269,-1.5237 0.54808,-2.19784 0.36538,-0.6741 0.86285,-1.23401 1.49244,-1.67972 0.47218,-0.34539 1.11582,-0.63788 1.9309,-0.87746 0.81508,-0.23955 1.68919,-0.35932 2.62232,-0.35934 1.40531,2e-5 2.63917,0.20058 3.70161,0.60169 1.0624,0.40114 1.84656,0.94434 2.35249,1.62957 0.5059,0.68528 0.85442,1.60174 1.04555,2.74939 l -2.96802,0.40113 c -0.13492,-0.91366 -0.5256,-1.62677 -1.17203,-2.13934 -0.64645,-0.51253 -1.55991,-0.76881 -2.74037,-0.76882 -1.39408,1e-5 -2.38904,0.22843 -2.98489,0.68525 -0.59585,0.45685 -0.89378,0.99168 -0.89378,1.60451 0,0.39 0.12366,0.74098 0.371,1.05295 0.24734,0.32314 0.6352,0.59056 1.1636,0.80226 0.30355,0.11144 1.19732,0.36771 2.68135,0.76883 2.14731,0.56827 3.64537,1.03346 4.4942,1.39558 0.84879,0.36214 1.51491,0.88862 1.99836,1.57944 0.48341,0.69084 0.72512,1.5488 0.72514,2.5739 -2e-5,1.00282 -0.29513,1.94714 -0.88535,2.83295 -0.59025,0.88583 -1.44187,1.57109 -2.55486,2.05578 -1.11302,0.48469 -2.37219,0.72704 -3.77749,0.72704 -2.32721,0 -4.10072,-0.47912 -5.32053,-1.43737 -1.21982,-0.95824 -1.99836,-2.3789 -2.33563,-4.26198 l 0,0 z m 18.39839,-2.85802 c 0,-3.93326 0.96124,-7.7161 2.88371,-11.34855 1.92247,-3.6324 4.44641,-5.43747 7.57184,-5.41521 1.94495,-0.0557 3.53576,0.6045 4.77246,1.98057 1.23665,1.3761 1.85499,3.47367 1.85501,6.29267 -2e-5,4.18956 -0.95844,8.07826 -2.87527,11.66611 -1.91687,3.58786 -4.43238,5.38178 -7.54655,5.38178 -1.96744,0 -3.56951,-0.75768 -4.80617,-2.27305 -1.23669,-1.51537 -1.85503,-3.61014 -1.85503,-6.28432 l 0,0 z m 3.84495,-5.21465 9.91591,0 c 0.29229,-1.70477 0.43844,-3.08086 0.43845,-4.12826 -1e-5,-1.50421 -0.35415,-2.7048 -1.06242,-3.60179 -0.70829,-0.89694 -1.64703,-1.34542 -2.81625,-1.34545 -2.88933,3e-5 -5.0479,3.02519 -6.47569,9.0755 l 0,0 z m 9.42685,2.50705 -9.94963,0 c -0.21361,1.50423 -0.32042,2.66304 -0.32041,3.47642 -10e-6,1.60452 0.34289,2.89147 1.02869,3.86085 0.68579,0.96939 1.62453,1.45409 2.81625,1.45409 1.37159,0 2.62793,-0.78554 3.76906,-2.35662 1.1411,-1.57108 2.02645,-3.71599 2.65604,-6.43474 l 0,0 z"
     inkscape:connector-curvature="0"
     inkscape:export-filename="C:\Users\Arnaud\Desktop\DotProduct.png"
     inkscape:export-xdpi="47.342262"
     inkscape:export-ydpi="47.342262" />
  <path
     style="fill:none;stroke:#000000;stroke-width:2"
     id="path2249-5"
     d="m 669.02349,210.45183 -1.93915,-8.82958"
     inkscape:connector-curvature="0"
     inkscape:export-filename="C:\Users\Arnaud\Desktop\DotProduct.png"
     inkscape:export-xdpi="47.342262"
     inkscape:export-ydpi="47.342262" />
  <path
     style="fill:none;stroke:#000000;stroke-width:2"
     id="path2251-1"
     d="m 953.36876,145.02 -1.93914,-8.82958"
     inkscape:connector-curvature="0"
     inkscape:export-filename="C:\Users\Arnaud\Desktop\DotProduct.png"
     inkscape:export-xdpi="47.342262"
     inkscape:export-ydpi="47.342262" />
  <path
     style="font-size:34.38299942px;font-style:normal;font-variant:normal;font-weight:normal;font-stretch:normal;text-indent:0pt;text-align:start;text-decoration:none;line-height:125%;letter-spacing:normal;word-spacing:normal;text-transform:none;direction:ltr;text-anchor:start;color:#000000;fill:#000000;fill-opacity:1;fill-rule:evenodd;stroke:none;stroke-width:3;marker:none;visibility:visible;display:inline;overflow:visible;font-family:Times New Roman"
     id="text9601-2"
     d="m 379.79909,230.17309 0,-32.12358 2.64761,0 0,32.12358 -2.64761,0 z m 5.75055,-7.20357 9.49431,-24.50216 3.52454,0 10.11827,24.50216 -3.7269,0 -2.8837,-7.42085 -10.33751,0 -2.71507,7.42085 -3.47394,0 z m 7.13338,-10.0616 8.38131,0 -2.58016,-6.78572 c -0.78699,-2.06134 -1.3716,-3.75498 -1.75384,-5.08095 -0.3148,1.57111 -0.75888,3.13104 -1.33223,4.67982 l -2.71507,7.18685 z m 19.15727,17.26517 0,-32.12358 2.64761,0 0,32.12358 -2.64761,0 z m 29.34299,-13.70516 2.9849,0.3844 c -0.32605,2.03907 -1.16081,3.63522 -2.50427,4.78846 -1.3435,1.15323 -2.99333,1.72986 -4.94953,1.72986 -2.45088,0 -4.42113,-0.7939 -5.91076,-2.38169 -1.48963,-1.5878 -2.23445,-3.86363 -2.23445,-6.82752 0,-1.91648 0.32041,-3.59341 0.96124,-5.0308 0.64082,-1.43735 1.61611,-2.51537 2.92587,-3.23408 1.30974,-0.71867 2.73473,-1.07801 4.27497,-1.07803 1.94494,2e-5 3.53576,0.4875 4.77245,1.46244 1.23666,0.97498 2.02926,2.35942 2.3778,4.15334 l -2.95117,0.45126 c -0.28108,-1.19222 -0.77856,-2.08919 -1.49244,-2.69089 -0.71392,-0.60167 -1.57678,-0.90252 -2.5886,-0.90253 -1.52899,1e-5 -2.77129,0.5432 -3.72689,1.62957 -0.95562,1.0864 -1.43343,2.80512 -1.43343,5.15616 0,2.38448 0.46094,4.11712 1.38283,5.19793 0.92188,1.08081 2.12483,1.62122 3.60886,1.62122 1.1917,0 2.18665,-0.36212 2.98488,-1.08639 0.79821,-0.72425 1.30413,-1.83849 1.51774,-3.34271 l 0,0 z m 4.45205,-2.37334 c 0,-3.287 0.92188,-5.72162 2.76565,-7.30385 1.54023,-1.31478 3.41773,-1.97219 5.63251,-1.97221 2.46211,2e-5 4.47451,0.79949 6.03724,2.39841 1.56269,1.59895 2.34405,3.80793 2.34407,6.62694 -2e-5,2.2842 -0.34573,4.08092 -1.03713,5.39015 -0.69142,1.30923 -1.69763,2.32598 -3.01861,3.05023 -1.32102,0.72426 -2.76287,1.08639 -4.32557,1.08639 -2.50709,0 -4.53356,-0.79669 -6.07939,-2.39005 -1.54585,-1.59337 -2.31877,-3.88869 -2.31877,-6.88601 l 0,0 z m 3.11979,0 c 0,2.27306 0.50029,3.97506 1.50089,5.10601 1.00057,1.13096 2.25974,1.69643 3.77748,1.69643 1.50649,0 2.76003,-0.56826 3.76063,-1.70479 1.00057,-1.13652 1.50086,-2.86916 1.50088,-5.19793 -2e-5,-2.19505 -0.50312,-3.85805 -1.50931,-4.98901 -1.00622,-1.13095 -2.25695,-1.69643 -3.7522,-1.69644 -1.51774,1e-5 -2.77691,0.56271 -3.77748,1.68807 -1.0006,1.12541 -1.50089,2.82461 -1.50089,5.09766 l 0,0 z m 16.02061,3.57671 3.00175,-0.46798 c 0.16864,1.19224 0.63801,2.10592 1.40812,2.74103 0.77012,0.63513 1.84659,0.95268 3.22943,0.95268 1.39405,0 2.42837,-0.28135 3.10294,-0.84403 0.67453,-0.5627 1.01181,-1.22288 1.01182,-1.98057 -10e-6,-0.67968 -0.29794,-1.21451 -0.89378,-1.6045 -0.41598,-0.26741 -1.4503,-0.60726 -3.10294,-1.01954 -2.22603,-0.55711 -3.76906,-1.03902 -4.62911,-1.44573 -0.86006,-0.40668 -1.51213,-0.96938 -1.9562,-1.68808 -0.44408,-0.71866 -0.66612,-1.51256 -0.66612,-2.38168 0,-0.7911 0.18269,-1.52371 0.54808,-2.19785 0.36538,-0.67409 0.86285,-1.234 1.49244,-1.67971 0.47218,-0.34539 1.11582,-0.63788 1.9309,-0.87747 0.81508,-0.23954 1.68919,-0.35932 2.62232,-0.35934 1.40531,2e-5 2.63917,0.20058 3.70161,0.6017 1.0624,0.40114 1.84656,0.94433 2.35249,1.62957 0.5059,0.68527 0.85442,1.60173 1.04555,2.74939 l -2.96802,0.40113 c -0.13492,-0.91367 -0.5256,-1.62678 -1.17203,-2.13935 -0.64645,-0.51253 -1.55991,-0.76881 -2.74037,-0.76882 -1.39408,1e-5 -2.38904,0.22843 -2.98489,0.68526 -0.59585,0.45685 -0.89378,0.99168 -0.89378,1.6045 0,0.39 0.12366,0.74099 0.371,1.05296 0.24734,0.32314 0.6352,0.59056 1.1636,0.80225 0.30355,0.11144 1.19732,0.36771 2.68135,0.76883 2.14731,0.56827 3.64537,1.03347 4.4942,1.39558 0.84879,0.36215 1.51491,0.88863 1.99836,1.57945 0.48341,0.69083 0.72512,1.54879 0.72514,2.57389 -2e-5,1.00283 -0.29513,1.94714 -0.88535,2.83296 -0.59025,0.88583 -1.44187,1.57108 -2.55486,2.05578 -1.11302,0.48468 -2.37219,0.72704 -3.77749,0.72704 -2.32721,0 -4.10072,-0.47912 -5.32053,-1.43738 -1.21982,-0.95824 -1.99836,-2.3789 -2.33563,-4.26197 l 0,0 z m 18.39839,-2.85802 c 0,-3.93326 0.96124,-7.71611 2.88371,-11.34855 1.92247,-3.6324 4.44641,-5.43748 7.57184,-5.41522 1.94495,-0.0556 3.53576,0.6045 4.77246,1.98057 1.23665,1.37611 1.85499,3.47367 1.85501,6.29268 -2e-5,4.18956 -0.95844,8.07826 -2.87527,11.6661 -1.91687,3.58786 -4.43238,5.38179 -7.54655,5.38179 -1.96744,0 -3.56951,-0.75768 -4.80617,-2.27306 -1.23669,-1.51536 -1.85503,-3.61014 -1.85503,-6.28431 l 0,0 z m 3.84495,-5.21466 9.91591,0 c 0.29229,-1.70477 0.43844,-3.08086 0.43845,-4.12826 -10e-6,-1.5042 -0.35415,-2.7048 -1.06242,-3.60179 -0.70829,-0.89693 -1.64703,-1.34541 -2.81625,-1.34544 -2.88933,3e-5 -5.0479,3.02518 -6.47569,9.07549 l 0,0 z m 9.42685,2.50705 -9.94963,0 c -0.21361,1.50423 -0.32042,2.66305 -0.32041,3.47643 -1e-5,1.60451 0.34289,2.89146 1.02869,3.86084 0.68579,0.9694 1.62453,1.45409 2.81625,1.45409 1.37159,0 2.62793,-0.78554 3.76906,-2.35662 1.1411,-1.57107 2.02645,-3.71598 2.65604,-6.43474 l 0,0 z"
     inkscape:connector-curvature="0"
     inkscape:export-filename="C:\Users\Arnaud\Desktop\DotProduct.png"
     inkscape:export-xdpi="47.342262"
     inkscape:export-ydpi="47.342262" />
  <path
     style="fill-rule:evenodd;stroke:none;stroke-width:0.4pt;marker-start:none"
     id="path5346-2"
     d="m 610.84654,127.62602 -4.98817,7.81128 20.98596,-11.33919 -23.80784,-1.46106 7.81005,4.98897 z"
     inkscape:connector-curvature="0"
     inkscape:export-filename="C:\Users\Arnaud\Desktop\DotProduct.png"
     inkscape:export-xdpi="47.342262"
     inkscape:export-ydpi="47.342262" />
  <path
     sodipodi:nodetypes="ccc"
     style="color:#000000;fill:none;stroke:#000000;stroke-width:3;stroke-linecap:round;stroke-linejoin:miter;stroke-miterlimit:4;stroke-opacity:1;stroke-dasharray:none;stroke-dashoffset:0;marker:none;visibility:visible;display:inline;overflow:visible;marker-start:url(#marker4620)"
     id="path5335-7"
     d="M 305.87214,9.7194808 344.26348,186.487 614.3035,126.94719"
     inkscape:connector-curvature="0"
     inkscape:export-filename="C:\Users\Arnaud\Desktop\DotProduct.png"
     inkscape:export-xdpi="47.342262"
     inkscape:export-ydpi="47.342262" />
  <path
     style="font-size:34.38299942px;font-style:normal;font-variant:normal;font-weight:normal;font-stretch:normal;text-indent:0pt;text-align:start;text-decoration:none;line-height:125%;letter-spacing:normal;word-spacing:normal;text-transform:none;direction:ltr;text-anchor:start;color:#000000;fill-opacity:1;fill-rule:evenodd;stroke:none;stroke-width:3;marker:none;visibility:visible;display:inline;overflow:visible;font-family:Arial"
     id="text6151-1"
     d="m 313.57538,5.0605973 9.49432,-24.5021613 3.52453,0 10.11828,24.5021613 -3.7269,0 -2.88371,-7.4208453 -10.3375,0 -2.71507,7.4208453 -3.47395,0 z m 7.13339,-10.0615974 8.3813,0 -2.58016,-6.7857279 c -0.78699,-2.061327 -1.3716,-3.754972 -1.75383,-5.08094 -0.3148,1.571101 -0.75888,3.131037 -1.33224,4.679813 l -2.71507,7.1868549 z"
     inkscape:connector-curvature="0"
     inkscape:export-filename="C:\Users\Arnaud\Desktop\DotProduct.png"
     inkscape:export-xdpi="47.342262"
     inkscape:export-ydpi="47.342262" />
  <path
     style="font-size:34.38299942px;font-style:normal;font-variant:normal;font-weight:normal;font-stretch:normal;text-indent:0pt;text-align:start;text-decoration:none;line-height:125%;letter-spacing:normal;word-spacing:normal;text-transform:none;direction:ltr;text-anchor:start;color:#000000;fill-opacity:1;fill-rule:evenodd;stroke:none;stroke-width:3;marker:none;visibility:visible;display:inline;overflow:visible;font-family:Arial"
     id="text6155-4"
     d="m 610.13116,161.31641 0,-24.50217 9.27509,0 c 1.88873,3e-5 3.40366,0.24795 4.54479,0.74375 1.1411,0.49587 2.03488,1.25912 2.68135,2.28978 0.64642,1.03068 0.96964,2.10872 0.96966,3.23408 -2e-5,1.0474 -0.28671,2.0335 -0.86005,2.95831 -0.57339,0.92483 -1.43906,1.67138 -2.59703,2.23963 1.49524,0.43456 2.64479,1.17552 3.44865,2.22291 0.80382,1.04739 1.20574,2.28419 1.20576,3.71042 -2e-5,1.14767 -0.24455,2.21455 -0.73358,3.20065 -0.48906,0.98611 -1.09334,1.74658 -1.81285,2.28141 -0.71954,0.53484 -1.62176,0.93875 -2.70664,1.21174 -1.08491,0.27299 -2.41434,0.40949 -3.98828,0.40949 l -9.42687,0 z m 3.27158,-14.20659 5.34583,0 c 1.45027,2e-5 2.49019,-0.0947 3.11979,-0.28412 0.83193,-0.24512 1.45871,-0.65182 1.88032,-1.2201 0.42158,-0.56824 0.63237,-1.28135 0.63239,-2.13933 -2e-5,-0.81339 -0.19676,-1.52929 -0.59023,-2.14771 -0.39351,-0.61838 -0.95564,-1.04179 -1.68639,-1.27023 -0.73078,-0.2284 -1.98432,-0.34261 -3.76062,-0.34263 l -4.94109,0 0,7.40412 z m 0,11.31513 6.15529,0 c 1.05678,0 1.79878,-0.039 2.22602,-0.117 0.75322,-0.1337 1.38281,-0.35655 1.88874,-0.66854 0.5059,-0.31198 0.92187,-0.76604 1.24791,-1.36216 0.32603,-0.59612 0.48905,-1.28416 0.48906,-2.06413 -10e-6,-0.91368 -0.23611,-1.70757 -0.70828,-2.38169 -0.4722,-0.67411 -1.12708,-1.14766 -1.96464,-1.42066 -0.83757,-0.27298 -2.04334,-0.40947 -3.61728,-0.40948 l -5.71682,0 0,8.42366 z"
     inkscape:connector-curvature="0"
     inkscape:export-filename="C:\Users\Arnaud\Desktop\DotProduct.png"
     inkscape:export-xdpi="47.342262"
     inkscape:export-ydpi="47.342262" />
  <path
     sodipodi:nodetypes="cc"
     style="color:#000000;fill:none;stroke:#000000;stroke-width:2;stroke-linecap:butt;stroke-linejoin:miter;stroke-miterlimit:4;stroke-opacity:1;stroke-dashoffset:0;marker:none;visibility:visible;display:inline;overflow:visible"
     id="path6161-3"
     d="m 344.33298,202.31611 3.70922,-0.881"
     inkscape:connector-curvature="0"
     inkscape:export-filename="C:\Users\Arnaud\Desktop\DotProduct.png"
     inkscape:export-xdpi="47.342262"
     inkscape:export-ydpi="47.342262" />
  <path
     style="font-size:34.38299942px;font-style:normal;font-variant:normal;font-weight:normal;font-stretch:normal;text-indent:0pt;text-align:start;text-decoration:none;line-height:125%;letter-spacing:normal;word-spacing:normal;text-transform:none;direction:ltr;text-anchor:start;color:#000000;fill-opacity:1;fill-rule:evenodd;stroke:none;stroke-width:3;marker:none;visibility:visible;display:inline;overflow:visible;font-family:Arial"
     id="text2213-2"
     d="m 352.98084,132.99785 c -10e-6,-3.93326 0.96123,-7.7161 2.88371,-11.34855 1.92246,-3.6324 4.44641,-5.43747 7.57184,-5.41521 1.94494,-0.0556 3.53576,0.6045 4.77245,1.98057 1.23666,1.3761 1.855,3.47366 1.85502,6.29267 -2e-5,4.18956 -0.95845,8.07826 -2.87528,11.66611 -1.91686,3.58786 -4.43238,5.38178 -7.54655,5.38178 -1.96744,0 -3.5695,-0.75768 -4.80618,-2.27305 -1.23668,-1.51537 -1.85502,-3.61013 -1.85501,-6.28432 l 0,0 z m 3.84494,-5.21465 9.91591,0 c 0.29229,-1.70477 0.43844,-3.08086 0.43846,-4.12826 -2e-5,-1.50421 -0.35416,-2.7048 -1.06242,-3.60179 -0.70829,-0.89694 -1.64704,-1.34543 -2.81625,-1.34544 -2.88934,10e-6 -5.04791,3.02518 -6.4757,9.07549 l 0,0 z m 9.42686,2.50705 -9.94964,0 c -0.21361,1.50423 -0.32041,2.66304 -0.32041,3.47643 0,1.60451 0.34289,2.89146 1.02869,3.86084 0.68579,0.96939 1.62454,1.45409 2.81626,1.45409 1.37157,0 2.62793,-0.78554 3.76905,-2.35662 1.14111,-1.57108 2.02645,-3.71599 2.65605,-6.43474 l 0,0 z"
     inkscape:connector-curvature="0"
     inkscape:export-filename="C:\Users\Arnaud\Desktop\DotProduct.png"
     inkscape:export-xdpi="47.342262"
     inkscape:export-ydpi="47.342262" />
  <path
     style="fill:none;stroke:#000000;stroke-width:2"
     id="path2249-1"
     d="m 345.30256,206.7309 -1.93915,-8.82958"
     inkscape:connector-curvature="0"
     inkscape:export-filename="C:\Users\Arnaud\Desktop\DotProduct.png"
     inkscape:export-xdpi="47.342262"
     inkscape:export-ydpi="47.342262" />
  <path
     sodipodi:nodetypes="cc"
     style="fill:none;stroke:#000000;stroke-width:2"
     id="path2251-6"
     d="m 349.01177,206.08246 -1.93914,-8.82958"
     inkscape:connector-curvature="0"
     inkscape:export-filename="C:\Users\Arnaud\Desktop\DotProduct.png"
     inkscape:export-xdpi="47.342262"
     inkscape:export-ydpi="47.342262" />
  <text
     sodipodi:linespacing="125%"
     id="text3115"
     y="225.11626"
     x="507.90695"
     style="font-size:36px;font-style:normal;font-weight:normal;line-height:125%;letter-spacing:0px;word-spacing:0px;fill:#000000;fill-opacity:1;stroke:none;font-family:Sans"
     xml:space="preserve"
     inkscape:export-filename="C:\Users\Arnaud\Desktop\DotProduct.png"
     inkscape:export-xdpi="47.342262"
     inkscape:export-ydpi="47.342262"><tspan
       y="225.11626"
       x="507.90695"
       id="tspan3117"
       sodipodi:role="line">= 0</tspan></text>
  <text
     sodipodi:linespacing="125%"
     id="text3115-3"
     y="227.54744"
     x="833.56311"
     style="font-size:36px;font-style:normal;font-weight:normal;line-height:125%;letter-spacing:0px;word-spacing:0px;fill:#000000;fill-opacity:1;stroke:none;font-family:Sans"
     xml:space="preserve"
     inkscape:export-filename="C:\Users\Arnaud\Desktop\DotProduct.png"
     inkscape:export-xdpi="47.342262"
     inkscape:export-ydpi="47.342262"><tspan
       y="227.54744"
       x="833.56311"
       sodipodi:role="line"
       id="tspan6276">= 1</tspan></text>
  <text
     sodipodi:linespacing="125%"
     id="text3115-5"
     y="142.42218"
     x="374.59659"
     style="font-size:36px;font-style:normal;font-weight:normal;line-height:125%;letter-spacing:0px;word-spacing:0px;fill:#000000;fill-opacity:1;stroke:none;font-family:Sans"
     xml:space="preserve"
     inkscape:export-filename="C:\Users\Arnaud\Desktop\DotProduct.png"
     inkscape:export-xdpi="47.342262"
     inkscape:export-ydpi="47.342262"><tspan
       y="142.42218"
       x="374.59659"
       id="tspan3117-9"
       sodipodi:role="line">= 90°</tspan></text>
  <text
     xml:space="preserve"
     style="font-size:36px;font-style:normal;font-weight:normal;line-height:125%;letter-spacing:0px;word-spacing:0px;fill:#000000;fill-opacity:1;stroke:none;font-family:Sans"
     x="850.229"
     y="102.9106"
     id="text6301"
     sodipodi:linespacing="125%"
     inkscape:export-filename="C:\Users\Arnaud\Desktop\DotProduct.png"
     inkscape:export-xdpi="47.342262"
     inkscape:export-ydpi="47.342262"><tspan
       sodipodi:role="line"
       id="tspan6303"
       x="850.229"
       y="102.9106">= 0°</tspan></text>
  <path
     style="font-size:34.38299942px;font-style:normal;font-variant:normal;font-weight:normal;font-stretch:normal;text-indent:0pt;text-align:start;text-decoration:none;line-height:125%;letter-spacing:normal;word-spacing:normal;text-transform:none;direction:ltr;text-anchor:start;color:#000000;fill-opacity:1;fill-rule:evenodd;stroke:none;stroke-width:3;marker:none;visibility:visible;display:inline;overflow:visible;font-family:Arial"
     id="text2213-2-8"
     d="m 829.46225,93.474626 c -1e-5,-3.93326 0.96123,-7.716099 2.88371,-11.348549 1.92246,-3.6324 4.44641,-5.43747 7.57184,-5.41521 1.94494,-0.0556 3.53576,0.6045 4.77245,1.98057 1.23666,1.3761 1.855,3.47366 1.85502,6.29267 -2e-5,4.189559 -0.95845,8.078259 -2.87528,11.666109 -1.91686,3.587864 -4.43238,5.381784 -7.54655,5.381784 -1.96744,0 -3.5695,-0.75768 -4.80618,-2.273054 -1.23668,-1.51537 -1.85502,-3.61013 -1.85501,-6.28432 l 0,0 z m 3.84494,-5.21465 9.91591,0 c 0.29229,-1.704769 0.43844,-3.080859 0.43846,-4.128259 -2e-5,-1.50421 -0.35416,-2.7048 -1.06242,-3.60179 -0.70829,-0.89694 -1.64704,-1.34543 -2.81625,-1.34544 -2.88934,10e-6 -5.04791,3.02518 -6.4757,9.075489 l 0,0 z m 9.42686,2.50705 -9.94964,0 c -0.21361,1.50423 -0.32041,2.66304 -0.32041,3.47643 0,1.60451 0.34289,2.89146 1.02869,3.86084 0.68579,0.96939 1.62454,1.45409 2.81626,1.45409 1.37157,0 2.62793,-0.78554 3.76905,-2.35662 1.14111,-1.57108 2.02645,-3.71599 2.65605,-6.43474 l 0,0 z"
     inkscape:connector-curvature="0"
     inkscape:export-filename="C:\Users\Arnaud\Desktop\DotProduct.png"
     inkscape:export-xdpi="47.342262"
     inkscape:export-ydpi="47.342262" />
  <path
     style="fill:none;stroke:#000000;stroke-width:0.69196898px;stroke-linecap:butt;stroke-linejoin:miter;stroke-opacity:1"
     d="m 372.43067,180.28238 -6.19554,-28.56385 -26.95461,6.276"
     id="path3022-5"
     inkscape:connector-curvature="0"
     inkscape:export-filename="C:\Users\Arnaud\Desktop\DotProduct.png"
     inkscape:export-xdpi="47.342262"
     inkscape:export-ydpi="47.342262" />
  <text
     xml:space="preserve"
     style="font-size:40px;font-style:normal;font-weight:normal;line-height:125%;letter-spacing:0px;word-spacing:0px;fill:#000000;fill-opacity:1;stroke:none;font-family:Sans"
     x="499.53488"
     y="17.674419"
     id="text6341"
     sodipodi:linespacing="125%"
     inkscape:export-filename="C:\Users\Arnaud\Desktop\DotProduct.png"
     inkscape:export-xdpi="47.342262"
     inkscape:export-ydpi="47.342262"><tspan
       sodipodi:role="line"
       id="tspan6343"
       x="499.53488"
       y="17.674419">Special cases</tspan></text>
</svg>
