<?xml version="1.0" encoding="UTF-8" standalone="no"?>
<!-- Generator: Adobe Illustrator 13.0.0, SVG Export Plug-In  -->

<svg
   xmlns:dc="http://purl.org/dc/elements/1.1/"
   xmlns:cc="http://creativecommons.org/ns#"
   xmlns:rdf="http://www.w3.org/1999/02/22-rdf-syntax-ns#"
   xmlns:svg="http://www.w3.org/2000/svg"
   xmlns="http://www.w3.org/2000/svg"
   xmlns:sodipodi="http://sodipodi.sourceforge.net/DTD/sodipodi-0.dtd"
   xmlns:inkscape="http://www.inkscape.org/namespaces/inkscape"
   version="1.1"
   x="0px"
   y="0px"
   width="507px"
   height="459px"
   viewBox="-21.914 -25.609 507 459"
   enable-background="new -21.914 -25.609 507 459"
   xml:space="preserve"
   id="svg2"
   inkscape:version="0.48.0 r9654"
   sodipodi:docname="Right_hand_rule_cross_product.svg"
   inkscape:export-filename="C:\Users\Arnaud\Desktop\Right_hand_rule_cross_product.png"
   inkscape:export-xdpi="75.938652"
   inkscape:export-ydpi="75.938652"><metadata
   id="metadata76"><rdf:RDF><cc:Work
       rdf:about=""><dc:format>image/svg+xml</dc:format><dc:type
         rdf:resource="http://purl.org/dc/dcmitype/StillImage" /><dc:title></dc:title></cc:Work></rdf:RDF></metadata><sodipodi:namedview
   pagecolor="#ffffff"
   bordercolor="#666666"
   borderopacity="1"
   objecttolerance="10"
   gridtolerance="10"
   guidetolerance="10"
   inkscape:pageopacity="0"
   inkscape:pageshadow="2"
   inkscape:window-width="1680"
   inkscape:window-height="988"
   id="namedview74"
   showgrid="false"
   inkscape:zoom="1.6083213"
   inkscape:cx="325.89222"
   inkscape:cy="229.01129"
   inkscape:window-x="-8"
   inkscape:window-y="-8"
   inkscape:window-maximized="1"
   inkscape:current-layer="svg2" />
<defs
   id="defs4">
</defs>
<path
   fill="#E5D4B1"
   stroke="#000000"
   stroke-width="3"
   d="M466.982,303.788c-22-3-57-23-62-26s-28-28-40-47s-23-42-27-55  s-8-26-9-33s1-23.5,4-30.5c-7-5-21-6-27,7s-11,33-11,46s22,55,8,61s-17,14-89-4s-102-20-109-6s34,20,56,24s72.021,22.634,65,32  c-4.35,5.802-9.375,4.488-20.709,8.488c-19.611,6.922-19.308,9.966-43.791,18.345c-24.433,8.362-22.843,32.226-15.167,36.23  s14.016,6.342,46.386-12.013c14.35-5.34,31.782-8.885,47.115-10.218s24.668,56,41.334,64.667s35.999,8,47.999,8  s18.666,2.001,25.333-1.333s25.334,1.332,35.334,6.666c0,0,38.667,18.667,42,22.667"
   id="path6" />
<path
   fill="none"
   stroke="#897F6A"
   stroke-width="2"
   d="M234.483,270.787c33.999-1.999,45.999,30.667,53.999,48.001"
   id="path8" />
<path
   fill="none"
   stroke="#897F6A"
   stroke-width="2"
   d="M306.149,245.453c0.334,25.334,11.001,46.668,25.333,54.666"
   id="path10" />
<path
   fill="none"
   stroke="#897F6A"
   stroke-width="2"
   d="M239.816,230.787c-8,1.333-17.333,20-13.333,25.333"
   id="path12" />
<path
   fill="none"
   stroke="#897F6A"
   stroke-width="2"
   d="M197.149,220.12c-5.333,4-16,13.333-13.333,18.667"
   id="path14" />
<path
   fill="none"
   stroke="#897F6A"
   stroke-width="2"
   d="M149.149,212.12c-6.667,4-8.834,15.501-10.167,18.167"
   id="path16" />
<path
   fill="none"
   stroke="#897F6A"
   stroke-width="2"
   d="M222.483,280.121c8,4,12,17.332,9.333,26.666"
   id="path18" />
<path
   fill="none"
   stroke="#897F6A"
   stroke-width="2"
   d="M201.296,287.393c6.667,4,7.248,23.993,4.581,27.993"
   id="path20" />
<path
   fill="none"
   stroke="#897F6A"
   stroke-width="2"
   d="M175.848,298.59c8.648,6.485,9.591,15.534,5.089,26.466"
   id="path22" />
<path
   fill="none"
   stroke="#897F6A"
   stroke-width="2"
   d="M293.982,236.288c-4,10-7,18-6,24"
   id="path24" />
<path
   fill="none"
   stroke="#897F6A"
   stroke-width="2"
   d="M294.982,165.288c11.947,1.707,2.677,3.252,25-1"
   id="path26" />
<path
   fill="none"
   stroke="#897F6A"
   stroke-width="2"
   d="M399.149,286.788c-4,12-8,15.999-14.667,19.999"
   id="path28" />
<path
   fill="#E5D4B1"
   stroke="#000000"
   stroke-width="3"
   d="M299.816,374.455c15.905-3.181,27.334-5.333,36-8  s21.332-10.001,24.666-16.667s0.667-7.999-1.333-12.666s-23.999-2-29.333,0s-10,4-32,7.333s-28,5-39.334,3.666  c-9.292-1.094,1.335,22.333,6.001,25S269.816,380.455,299.816,374.455z"
   id="path30" />
<path
   fill="#E5D4B1"
   stroke="#000000"
   stroke-width="3"
   d="M316.784,311.788c18.897-1.333,28.348-2.666,33.435,2.667  s2.906,10.667,1.453,12s-18.171,8.666-26.893,11.333c-8.723,2.667-10.176,0.667-27.619,4.667c-17.444,4-18.897,5.333-23.986,7.333  c-5.088,2-15.263,1.333-24.711-6c-9.449-7.333-7.996-20-7.269-24c0.727-4,1.455-12.667,19.625-14s12.354,4.666,35.614,5.333  C319.691,311.788,316.784,311.788,316.784,311.788z"
   id="path32" />
<path
   fill="none"
   stroke="#897F6A"
   stroke-width="2"
   d="M245.815,318.455c-1.923,17.305,1.109,18.166,10.667,25.333"
   id="path34" />
<path
   fill="none"
   stroke="#897F6A"
   stroke-width="2"
   d="M275.149,318.787c0,5.333,1.333,17.333,1.333,17.333"
   id="path36" />
<path
   fill="none"
   stroke="#897F6A"
   stroke-width="2"
   d="M308.149,317.12c0,2.667,1.334,13.333,1.334,17.333"
   id="path38" />
<path
   fill="none"
   stroke="#897F6A"
   stroke-width="2"
   d="M314.815,347.122c0,4,6.667,17.333,6.667,17.333"
   id="path40" />
<path
   fill="none"
   stroke="#897F6A"
   stroke-width="2"
   d="M282.482,354.788c1.333,2.667,2.667,14.666,6.667,16"
   id="path42" />
<path
   fill="none"
   stroke="#897F6A"
   stroke-width="2"
   d="M405.815,318.788c-6.666,12-10.666,42.668-17.333,49.334"
   id="path44" />
<line
   fill="none"
   stroke="#963C96"
   stroke-width="9"
   stroke-linecap="round"
   x1="323.482"
   y1="90.788"
   x2="322.814"
   y2="41.788"
   id="line46"
   style="fill:#ff0000;fill-opacity:1;stroke:#ff0000;stroke-opacity:1;stroke-width:9;stroke-miterlimit:4;stroke-dasharray:none" />
<polygon
   fill="#963C96"
   points="322.814,41.788 299.501,60.3 322.814,0 346.127,60.3"
   id="polygon48"
   style="fill:#ff0000;fill-opacity:1;stroke:#ff0000;stroke-opacity:1;stroke-width:1.55225563;stroke-miterlimit:4;stroke-dasharray:none" />
<line
   fill="none"
   stroke="#2828FF"
   stroke-width="9"
   stroke-linecap="round"
   x1="88.996"
   y1="210.46"
   x2="40.9"
   y2="201.067"
   id="line50"
   style="stroke:#00ff00;stroke-opacity:1;fill:#00ff00;fill-opacity:1" />
<polygon
   fill="#2828FF"
   points="40.9,201.067 54.24,227.68 0,192.5 63.799,182.044"
   id="polygon52"
   style="stroke:#00ff00;stroke-opacity:1;fill:#00ff00;fill-opacity:1;stroke-width:0;stroke-miterlimit:4;stroke-dasharray:none" />
<line
   fill="none"
   stroke="#E12828"
   stroke-width="9"
   stroke-linecap="round"
   x1="126.377"
   y1="335.255"
   x2="95.585"
   y2="348.005"
   id="line54"
   style="stroke:#0000ff;stroke-opacity:1" />
<polygon
   fill="#E12828"
   points="95.585,348.005 118.064,371.413 69.063,358.197 96.605,315.568"
   id="polygon56"
   style="stroke:#0000ff;stroke-opacity:1;fill:#0000ff;fill-opacity:1;stroke-width:0;stroke-miterlimit:4;stroke-dasharray:none" />
<g
   id="g58"
   transform="translate(-370.57272,264.87245)"
   style="stroke:#0000ff;stroke-opacity:1;fill:#0000ff;fill-opacity:1;stroke-width:0;stroke-miterlimit:4;stroke-dasharray:none">
	<path
   d="m 375.868,62.098 -0.308,-0.103 c -1.121,1.094 -2.212,1.887 -3.271,2.379 -1.059,0.492 -2.184,0.738 -3.373,0.738 -1.75,0 -3.138,-0.461 -4.163,-1.384 -1.025,-0.923 -1.538,-2.157 -1.538,-3.702 0,-2.01 0.987,-3.592 2.963,-4.748 1.976,-1.156 4.974,-1.883 8.993,-2.184 v -1.948 c 0,-1.271 -0.144,-2.252 -0.431,-2.943 -0.287,-0.691 -0.656,-1.176 -1.107,-1.456 -0.451,-0.28 -0.991,-0.42 -1.62,-0.42 -0.629,0 -1.173,0.109 -1.63,0.328 -0.459,0.219 -0.872,0.632 -1.241,1.241 -0.369,0.609 -0.643,1.453 -0.82,2.533 h -3.876 v -3.732 c 1.572,-0.697 2.902,-1.22 3.988,-1.569 1.088,-0.349 2.099,-0.605 3.035,-0.769 0.936,-0.164 1.836,-0.246 2.697,-0.246 1.654,0 2.977,0.219 3.969,0.656 0.99,0.438 1.732,1.148 2.225,2.133 0.493,0.985 0.738,2.345 0.738,4.081 v 7.998 c 0,1.162 0.034,1.986 0.103,2.471 0.069,0.485 0.175,0.837 0.317,1.056 0.145,0.219 0.328,0.39 0.555,0.513 0.225,0.123 0.639,0.26 1.24,0.41 v 1.354 h -7.629 l 0.184,-2.687 z m -0.677,-6.994 c -2.119,0.055 -3.688,0.451 -4.707,1.189 -1.019,0.738 -1.527,1.818 -1.527,3.24 0,0.848 0.232,1.494 0.697,1.938 0.465,0.444 1.107,0.667 1.928,0.667 0.629,0 1.224,-0.167 1.784,-0.502 0.56,-0.335 1.005,-0.783 1.333,-1.343 0.328,-0.56 0.492,-1.155 0.492,-1.784 v -3.405 z"
   id="path60"
   inkscape:connector-curvature="0"
   style="fill:#0000ff;stroke:#0000ff;stroke-opacity:1;fill-opacity:1;stroke-width:0;stroke-miterlimit:4;stroke-dasharray:none" />
	<path
   d="m 403.971,52.808 9.208,9.311 -2.051,2.051 -9.188,-9.372 -9.475,9.29 -1.907,-1.928 9.372,-9.352 -9.33,-9.208 2.051,-2.051 9.29,9.27 9.29,-9.27 1.928,1.907 -9.188,9.352 z"
   id="path62"
   inkscape:connector-curvature="0"
   style="stroke:#0000ff;stroke-opacity:1;fill:#0000ff;fill-opacity:1;stroke-width:0;stroke-miterlimit:4;stroke-dasharray:none" />
	<path
   d="m 422.54,42.492 c 0,-1.299 -0.021,-2.242 -0.062,-2.83 -0.041,-0.588 -0.127,-1.042 -0.256,-1.364 -0.131,-0.321 -0.328,-0.574 -0.596,-0.759 -0.266,-0.185 -0.734,-0.345 -1.404,-0.482 v -1.354 l 5.722,-0.287 h 2.522 v 11.751 l 0.021,0.021 c 1.217,-1.135 2.32,-1.931 3.312,-2.389 0.992,-0.458 2.007,-0.687 3.046,-0.687 2.434,0 4.259,0.858 5.476,2.574 1.217,1.716 1.825,4.283 1.825,7.701 0,3.568 -0.804,6.248 -2.409,8.039 -1.607,1.791 -3.982,2.687 -7.127,2.687 -2.16,0 -4.136,-0.39 -5.927,-1.169 l -1.518,1.169 -2.625,-0.369 V 42.492 z m 5.926,15.566 c 0,1.682 0.29,2.922 0.871,3.722 0.581,0.8 1.48,1.2 2.697,1.2 1.258,0 2.218,-0.66 2.881,-1.979 0.663,-1.319 0.995,-3.203 0.995,-5.65 0,-2.693 -0.294,-4.703 -0.882,-6.029 -0.588,-1.326 -1.504,-1.989 -2.748,-1.989 -0.602,0 -1.196,0.157 -1.784,0.472 -0.588,0.315 -1.073,0.762 -1.456,1.343 -0.383,0.581 -0.574,1.22 -0.574,1.917 v 6.993 z"
   id="path64"
   inkscape:connector-curvature="0"
   style="fill:#0000ff;stroke:#0000ff;stroke-opacity:1;fill-opacity:1;stroke-width:0;stroke-miterlimit:4;stroke-dasharray:none" />
</g>
<g
   id="g66"
   transform="translate(279.17307,-152.33274)"
   style="fill:#ff0000;fill-opacity:1;stroke:#ff0000;stroke-opacity:1;stroke-width:0;stroke-miterlimit:4;stroke-dasharray:none">
	<path
   d="m 74.339,166.769 -0.308,-0.103 c -1.121,1.094 -2.212,1.887 -3.271,2.379 -1.059,0.492 -2.184,0.738 -3.373,0.738 -1.75,0 -3.138,-0.461 -4.163,-1.384 -1.025,-0.923 -1.538,-2.157 -1.538,-3.702 0,-2.01 0.987,-3.592 2.963,-4.748 1.976,-1.156 4.974,-1.883 8.993,-2.184 v -1.948 c 0,-1.271 -0.144,-2.252 -0.431,-2.943 -0.287,-0.691 -0.656,-1.176 -1.107,-1.456 -0.451,-0.28 -0.991,-0.42 -1.62,-0.42 -0.629,0 -1.173,0.109 -1.63,0.328 -0.459,0.219 -0.872,0.632 -1.241,1.241 -0.369,0.609 -0.643,1.453 -0.82,2.533 h -3.876 v -3.732 c 1.572,-0.697 2.902,-1.22 3.988,-1.569 1.088,-0.349 2.099,-0.605 3.035,-0.769 0.936,-0.164 1.836,-0.246 2.697,-0.246 1.654,0 2.977,0.219 3.969,0.656 0.99,0.438 1.732,1.148 2.225,2.133 0.493,0.985 0.738,2.345 0.738,4.081 v 7.998 c 0,1.162 0.034,1.986 0.103,2.471 0.069,0.485 0.175,0.837 0.317,1.056 0.145,0.219 0.328,0.39 0.555,0.513 0.225,0.123 0.639,0.26 1.24,0.41 v 1.354 h -7.629 l 0.184,-2.687 z m -0.676,-6.994 c -2.119,0.055 -3.688,0.451 -4.707,1.189 -1.019,0.738 -1.527,1.818 -1.527,3.24 0,0.848 0.232,1.494 0.697,1.938 0.465,0.444 1.107,0.667 1.928,0.667 0.629,0 1.224,-0.167 1.784,-0.502 0.56,-0.335 1.005,-0.783 1.333,-1.343 0.328,-0.56 0.492,-1.155 0.492,-1.784 v -3.405 z"
   id="path68"
   inkscape:connector-curvature="0"
   style="fill:#ff0000;fill-opacity:1;stroke:#ff0000;stroke-opacity:1;stroke-width:0;stroke-miterlimit:4;stroke-dasharray:none" />
</g>
<g
   id="g70"
   transform="translate(-18.031223,-116.2703)"
   style="stroke:#00ff00;stroke-opacity:1;fill:#00ff00;fill-opacity:1;stroke-width:0;stroke-miterlimit:4;stroke-dasharray:none">
	<path
   d="m 93.716,283.163 c 0,-1.299 -0.021,-2.242 -0.062,-2.83 -0.041,-0.588 -0.127,-1.042 -0.256,-1.363 -0.131,-0.321 -0.328,-0.574 -0.596,-0.759 -0.266,-0.185 -0.734,-0.345 -1.404,-0.481 v -1.354 l 5.722,-0.287 h 2.522 v 11.75 l 0.021,0.021 c 1.217,-1.135 2.32,-1.932 3.312,-2.39 0.992,-0.458 2.007,-0.687 3.046,-0.687 2.434,0 4.259,0.857 5.476,2.573 1.217,1.716 1.825,4.282 1.825,7.7 0,3.568 -0.804,6.248 -2.409,8.039 -1.607,1.791 -3.982,2.688 -7.127,2.688 -2.16,0 -4.136,-0.391 -5.927,-1.17 l -1.518,1.17 -2.625,-0.369 v -22.251 z m 5.927,15.566 c 0,1.682 0.29,2.922 0.871,3.722 0.581,0.8 1.48,1.2 2.697,1.2 1.258,0 2.218,-0.66 2.881,-1.979 0.663,-1.319 0.995,-3.202 0.995,-5.649 0,-2.693 -0.294,-4.703 -0.882,-6.029 -0.588,-1.326 -1.504,-1.99 -2.748,-1.99 -0.602,0 -1.196,0.158 -1.784,0.473 -0.588,0.315 -1.073,0.762 -1.456,1.343 -0.383,0.581 -0.574,1.22 -0.574,1.917 v 6.992 z"
   id="path72"
   inkscape:connector-curvature="0"
   style="fill:#00ff00;stroke:#00ff00;stroke-opacity:1;fill-opacity:1;stroke-width:0;stroke-miterlimit:4;stroke-dasharray:none" />
</g>
</svg>