<?xml version="1.0" encoding="UTF-8" standalone="no"?>
<svg
   xmlns:dc="http://purl.org/dc/elements/1.1/"
   xmlns:cc="http://creativecommons.org/ns#"
   xmlns:rdf="http://www.w3.org/1999/02/22-rdf-syntax-ns#"
   xmlns:svg="http://www.w3.org/2000/svg"
   xmlns="http://www.w3.org/2000/svg"
   xmlns:sodipodi="http://sodipodi.sourceforge.net/DTD/sodipodi-0.dtd"
   xmlns:inkscape="http://www.inkscape.org/namespaces/inkscape"
   version="1.0"
   width="352"
   height="352"
   id="Unit circle"
   inkscape:version="0.48.0 r9654"
   sodipodi:docname="Unit_circle.svg">
  <metadata
     id="metadata36">
    <rdf:RDF>
      <cc:Work
         rdf:about="">
        <dc:format>image/svg+xml</dc:format>
        <dc:type
           rdf:resource="http://purl.org/dc/dcmitype/StillImage" />
        <dc:title></dc:title>
      </cc:Work>
    </rdf:RDF>
  </metadata>
  <sodipodi:namedview
     pagecolor="#ffffff"
     bordercolor="#666666"
     borderopacity="1"
     objecttolerance="10"
     gridtolerance="10"
     guidetolerance="10"
     inkscape:pageopacity="0"
     inkscape:pageshadow="2"
     inkscape:window-width="1680"
     inkscape:window-height="988"
     id="namedview34"
     showgrid="false"
     inkscape:object-nodes="true"
     inkscape:snap-bbox="true"
     inkscape:bbox-paths="true"
     inkscape:bbox-nodes="true"
     inkscape:snap-bbox-edge-midpoints="true"
     inkscape:snap-global="false"
     inkscape:zoom="1.4829545"
     inkscape:cx="240.2392"
     inkscape:cy="168.21171"
     inkscape:window-x="-8"
     inkscape:window-y="-8"
     inkscape:window-maximized="1"
     inkscape:current-layer="Unit circle">
    <inkscape:grid
       type="xygrid"
       id="grid3044" />
  </sodipodi:namedview>
  <defs
     id="defs4">
    <inkscape:path-effect
       effect="skeletal"
       id="path-effect3040"
       is_visible="true"
       pattern="M 0,0 0,10 10,5 z"
       copytype="single_stretched"
       prop_scale="1"
       scale_y_rel="false"
       spacing="0"
       normal_offset="0"
       tang_offset="0"
       prop_units="false"
       vertical_pattern="false"
       fuse_tolerance="0" />
    <marker
       markerUnits="strokeWidth"
       refX="0"
       refY="5"
       markerWidth="4"
       markerHeight="3"
       orient="auto"
       viewBox="0 0 10 10"
       id="ArrowEnd">
      <path
         d="M 0,0 L 10,5 L 0,10 L 0,0 z "
         id="path7" />
    </marker>
    <marker
       markerUnits="strokeWidth"
       refX="10"
       refY="5"
       markerWidth="4"
       markerHeight="3"
       orient="auto"
       viewBox="0 0 10 10"
       id="ArrowStart">
      <path
         d="M 10,0 L 0,5 L 10,10 L 10,0 z "
         id="path10" />
    </marker>
  </defs>
  <path
     inkscape:connector-curvature="0"
     id="path14"
     style="fill:#000000;fill-rule:evenodd;stroke:none"
     d="m -240.156,2261.2674 0,0 0,0 z" />
  <path
     inkscape:connector-curvature="0"
     id="path16"
     style="fill:#000000;fill-rule:evenodd;stroke:none"
     d="m 305.97908,201.91291 17.55332,-6.27062 -17.55332,-6.27062 7.02259,6.27062"
     inkscape:export-filename="C:\Users\Arnaud\Desktop\UnitCircle.png"
     inkscape:export-xdpi="69.755966"
     inkscape:export-ydpi="69.755966" />
  <path
     inkscape:connector-curvature="0"
     id="path18"
     style="fill:none;stroke:#000000;stroke-width:1.56728268"
     d="m -63.53418,195.64544 376.53585,0"
     inkscape:export-filename="C:\Users\Arnaud\Desktop\UnitCircle.png"
     inkscape:export-xdpi="69.755966"
     inkscape:export-ydpi="69.755966" />
  <path
     inkscape:connector-curvature="0"
     id="path20"
     style="fill:#000000;fill-rule:evenodd;stroke:none"
     d="m 154.99662,38.395194 -6.27061,-17.553004 -6.27062,17.553004 6.27062,-7.022271"
     inkscape:export-filename="C:\Users\Arnaud\Desktop\UnitCircle.png"
     inkscape:export-xdpi="69.755966"
     inkscape:export-ydpi="69.755966" />
  <path
     inkscape:connector-curvature="0"
     id="path22"
     style="fill:none;stroke:#000000;stroke-width:1.56728268"
     d="m 148.72915,407.90877 0,-376.535847"
     inkscape:export-filename="C:\Users\Arnaud\Desktop\UnitCircle.png"
     inkscape:export-xdpi="69.755966"
     inkscape:export-ydpi="69.755966" />
  <path
     inkscape:connector-curvature="0"
     id="path24"
     style="fill:none;stroke:#000000;stroke-width:2.50765181"
     d="m 272.33548,195.64544 c 0,-68.26571 -55.34062,-123.606646 -123.60633,-123.606646 -68.265703,0 -123.605696,55.340936 -123.605696,123.606646 0,68.2657 55.339993,123.60632 123.605696,123.60632 68.26571,0 123.60633,-55.34062 123.60633,-123.60632 z"
     inkscape:export-filename="C:\Users\Arnaud\Desktop\UnitCircle.png"
     inkscape:export-xdpi="69.755966"
     inkscape:export-ydpi="69.755966" />
  <path
     inkscape:connector-curvature="0"
     id="path26"
     style="fill:#000000;fill-rule:evenodd;stroke:none"
     d="m 220.30793,89.992011 c 0,-3.039346 -2.46671,-5.50606 -5.50606,-5.50606 -3.03934,0 -5.50606,2.466714 -5.50606,5.50606 0,3.039345 2.46672,5.50606 5.50606,5.50606 3.03935,0 5.50606,-2.466715 5.50606,-5.50606"
     inkscape:export-filename="C:\Users\Arnaud\Desktop\UnitCircle.png"
     inkscape:export-xdpi="69.755966"
     inkscape:export-ydpi="69.755966" />
  <path
     inkscape:connector-curvature="0"
     id="path28"
     style="fill:none;stroke:#000000;stroke-width:2.50765181"
     d="M 148.72915,195.64544 214.89312,89.762329"
     inkscape:export-filename="C:\Users\Arnaud\Desktop\UnitCircle.png"
     inkscape:export-xdpi="69.755966"
     inkscape:export-ydpi="69.755966" />
  <path
     inkscape:connector-curvature="0"
     id="path32"
     style="fill:#000000;fill-rule:evenodd;stroke:none"
     d="m 178.43985,173.86032 -13.17049,-4.68802 7.2208,11.97143 -1.10436,-6.97193"
     inkscape:export-filename="C:\Users\Arnaud\Desktop\UnitCircle.png"
     inkscape:export-xdpi="69.755966"
     inkscape:export-ydpi="69.755966" />
  <path
     inkscape:connector-curvature="0"
     id="path34"
     style="fill:none;stroke:#000000;stroke-width:1.56728268"
     d="m 179.94379,195.64544 c 0,-8.06402 -3.12115,-15.81341 -8.70901,-21.62781"
     inkscape:export-filename="C:\Users\Arnaud\Desktop\UnitCircle.png"
     inkscape:export-xdpi="69.755966"
     inkscape:export-ydpi="69.755966" />
  <path
     inkscape:connector-curvature="0"
     id="path36"
     style="fill:#000000;fill-rule:evenodd;stroke:none"
     d="m 195.14366,165.50369 2.94496,0 c 0.62612,0 0.9376,0.0469 0.9376,-0.57892 0,-0.3461 -0.31148,-0.36529 -0.87467,-0.36529 l -2.75933,0 c 1.12953,-4.436 1.2837,-5.05897 1.2837,-5.24775 0,-0.53173 -0.37756,-0.72994 -0.90928,-0.72994 -0.0944,0 -0.97222,0.0283 -1.25539,1.0128 l -1.22391,4.96489 -2.94496,0 c -0.62612,0 -0.94075,0.0192 -0.94075,0.61385 0,0.37724 0.25171,0.33036 0.87782,0.33036 l 2.75933,0 c -2.25591,8.94499 -2.38177,9.47986 -2.38177,10.0462 0,1.69272 1.19246,2.88518 2.88518,2.88518 3.19666,0 4.98377,-4.5779 4.98377,-4.82646 0,-0.31495 -0.25171,-0.31495 -0.37756,-0.31495 -0.28002,0 -0.31149,0.0947 -0.4688,0.43766 -1.34663,3.25958 -3.00474,4.07134 -4.07134,4.07134 -0.65758,0 -0.86209,-0.42476 -0.86209,-1.50111 0,-0.75166 0.022,-0.9719 0.0787,-1.50363 l 2.31883,-9.29423 z"
     inkscape:export-filename="C:\Users\Arnaud\Desktop\UnitCircle.png"
     inkscape:export-xdpi="69.755966"
     inkscape:export-ydpi="69.755966" />
  <path
     inkscape:connector-curvature="0"
     id="path40"
     style="fill:#000000;fill-rule:evenodd;stroke:none"
     d="m 198.3428,209.52402 c -1.28369,0.0944 -1.50079,1.03514 -1.50079,1.44101 0,0.8149 0.57578,1.53226 1.46933,1.53226 0.8149,0 1.36236,-0.56634 1.36236,-1.56403 0,-2.13006 -2.34401,-3.37254 -4.71634,-3.37254 -3.91716,0 -6.61041,3.39487 -6.61041,7.2897 0,4.01188 3.01417,7.11729 6.54749,7.11729 4.20034,0 5.20401,-3.76299 5.20401,-4.07448 0,-0.31495 -0.31463,-0.31495 -0.40902,-0.31495 -0.28317,0 -0.3461,0.12617 -0.40902,0.31495 -0.90929,2.91664 -2.94496,3.44522 -4.10595,3.44522 -1.66126,0 -4.31046,-1.38123 -4.31046,-6.54749 0,-5.10962 2.50447,-6.60098 4.12483,-6.60098 0.28317,0 2.25591,0.0378 3.35397,1.33404 z"
     inkscape:export-filename="C:\Users\Arnaud\Desktop\UnitCircle.png"
     inkscape:export-xdpi="69.755966"
     inkscape:export-ydpi="69.755966" />
  <path
     inkscape:connector-curvature="0"
     id="path42"
     style="fill:#000000;fill-rule:evenodd;stroke:none"
     d="m 215.71993,214.91681 c 0,-4.01156 -3.14632,-7.35295 -6.95022,-7.35295 -3.91717,0 -6.89359,3.42634 -6.89359,7.35295 0,4.04302 3.22813,7.05374 6.86213,7.05374 3.79131,0 6.98168,-3.0705 6.98168,-7.05374 z m -6.95022,6.42479 c -1.34663,0 -2.72786,-0.70792 -3.57422,-2.25591 -0.78343,-1.37809 -0.80231,-3.28791 -0.80231,-4.41744 0,-1.22392 0.0189,-2.91664 0.77085,-4.29472 0.84636,-1.44102 2.31883,-2.1804 3.57422,-2.1804 1.37808,0 2.72786,0.71704 3.54275,2.11747 0.8149,1.34662 0.92502,3.16205 0.92502,4.35451 0,1.12953 -0.10697,2.82225 -0.79916,4.20002 -0.68905,1.40955 -2.07028,2.47332 -3.63715,2.47332 l 0,0.003 z"
     inkscape:export-filename="C:\Users\Arnaud\Desktop\UnitCircle.png"
     inkscape:export-xdpi="69.755966"
     inkscape:export-ydpi="69.755966" />
  <path
     inkscape:connector-curvature="0"
     id="path44"
     style="fill:#000000;fill-rule:evenodd;stroke:none"
     d="m 223.49763,215.54293 c 0.68905,0.12585 3.23442,0.62612 3.23442,2.88517 0,1.59834 -1.08863,2.9135 -3.51444,2.9135 -2.63347,0 -3.763,-1.8126 -4.35765,-4.51183 -0.0944,-0.40902 -0.12586,-0.53172 -0.43734,-0.53172 -0.40902,0 -0.49712,0.22024 -0.49712,0.78343 l 0,4.13741 c 0,0.53173 0.0912,0.75166 0.43419,0.75166 0.15732,0 0.18878,-0.0311 0.78344,-0.62581 0.0629,-0.0629 0.0629,-0.12585 0.62611,-0.7205 1.37809,1.31516 2.79079,1.34631 3.44837,1.34631 3.60568,0 5.0876,-2.10143 5.0876,-4.35734 0,-1.66126 -0.96907,-2.60201 -1.35921,-2.97642 -1.03514,-1.00368 -2.25591,-1.25538 -3.57422,-1.5008 -1.75565,-0.34609 -3.87627,-0.75228 -3.87627,-2.57085 0,-1.09807 0.82119,-2.36887 3.53332,-2.36887 3.44837,0 3.60568,2.80967 3.66861,3.77842 0.0283,0.28348 0.31149,0.28348 0.37441,0.28348 0.40902,0 0.28946,-0.15731 0.28946,-0.75197 l 0,-3.1652 c 0,-0.53173 0.11956,-0.77085 -0.22653,-0.77085 -0.15417,0 -0.2171,0.0189 -0.62612,0.39644 -0.0912,0.12585 -0.40587,0.40902 -0.53173,0.50027 -1.18931,-0.87783 -2.473,-0.89671 -2.94181,-0.89671 -3.82277,0 -5.10647,2.11119 -5.10647,3.87627 0,1.09807 0.53487,1.97589 1.43786,2.66493 1.00368,0.8149 1.8815,1.00368 4.13742,1.44102 l -0.006,-0.009 z"
     inkscape:export-filename="C:\Users\Arnaud\Desktop\UnitCircle.png"
     inkscape:export-xdpi="69.755966"
     inkscape:export-ydpi="69.755966" />
  <path
     inkscape:connector-curvature="0"
     id="path46"
     style="fill:#000000;fill-rule:evenodd;stroke:none"
     d="m 240.73947,209.03949 2.94495,0 c 0.62612,0 0.94075,0.0472 0.94075,-0.57893 0,-0.34609 -0.31463,-0.36497 -0.87782,-0.36497 l -2.75932,0 c 1.12952,-4.43631 1.28369,-5.05928 1.28369,-5.24838 0,-0.53141 -0.37755,-0.72994 -0.90928,-0.72994 -0.0944,0 -0.97221,0.0286 -1.25538,1.01343 l -1.22392,4.96489 -2.94496,0 c -0.62612,0 -0.94075,0.0189 -0.94075,0.61353 0,0.37756 0.25171,0.33037 0.87783,0.33037 l 2.75932,0 c -2.25591,8.94498 -2.38177,9.47986 -2.38177,10.0462 0,1.69272 1.19246,2.88486 2.88518,2.88486 3.19666,0 4.98377,-4.57758 4.98377,-4.82646 0,-0.31432 -0.24856,-0.31432 -0.37756,-0.31432 -0.28002,0 -0.31148,0.0944 -0.46565,0.43703 -1.34663,3.2599 -3.00789,4.07165 -4.07449,4.07165 -0.65758,0 -0.86209,-0.42507 -0.86209,-1.50079 0,-0.75197 0.0252,-0.97253 0.0787,-1.50394 l 2.31884,-9.29423 z"
     inkscape:export-filename="C:\Users\Arnaud\Desktop\UnitCircle.png"
     inkscape:export-xdpi="69.755966"
     inkscape:export-ydpi="69.755966" />
  <path
     inkscape:connector-curvature="0"
     id="path50"
     style="fill:#000000;fill-rule:evenodd;stroke:none"
     d="m 97.727739,96.186607 c 0.68905,0.125853 3.234421,0.626118 3.234421,2.885175 0,1.598328 -1.088631,2.913498 -3.514441,2.913498 -2.63347,0 -3.763,-1.8126 -4.35765,-4.511828 -0.0944,-0.409022 -0.12586,-0.531728 -0.43734,-0.531728 -0.40902,0 -0.49712,0.220242 -0.49712,0.783433 l 0,4.137413 c 0,0.53173 0.0912,0.75165 0.43419,0.75165 0.15732,0 0.18878,-0.0311 0.78344,-0.6258 0.0629,-0.0629 0.0629,-0.12585 0.62611,-0.72051 1.37809,1.31517 2.79079,1.34631 3.44837,1.34631 3.605681,0 5.087601,-2.10142 5.087601,-4.357334 0,-1.661257 -0.96907,-2.602007 -1.35921,-2.976419 -1.03514,-1.003676 -2.255911,-1.255382 -3.574221,-1.500795 -1.75565,-0.346095 -3.87627,-0.752285 -3.87627,-2.570858 0,-1.098066 0.82119,-2.368864 3.53332,-2.368864 3.448371,0 3.605681,2.809664 3.668611,3.778415 0.0283,0.283484 0.31149,0.283484 0.37441,0.283484 0.40902,0 0.28946,-0.157316 0.28946,-0.751971 l 0,-3.165197 c 0,-0.531729 0.11956,-0.770849 -0.22653,-0.770849 -0.15417,0 -0.2171,0.01888 -0.62612,0.396436 -0.0912,0.125853 -0.40587,0.409022 -0.53173,0.500265 -1.189311,-0.877823 -2.473001,-0.896701 -2.941811,-0.896701 -3.82277,0 -5.10647,2.111181 -5.10647,3.876266 0,1.098066 0.53487,1.975889 1.43786,2.664933 1.00368,0.814897 1.8815,1.003676 4.13742,1.441015 l -0.006,-0.0094 z"
     inkscape:export-filename="C:\Users\Arnaud\Desktop\UnitCircle.png"
     inkscape:export-xdpi="69.755966"
     inkscape:export-ydpi="69.755966" />
  <path
     inkscape:connector-curvature="0"
     id="path52"
     style="fill:#000000;fill-rule:evenodd;stroke:none"
     d="m 109.45722,88.414882 -4.50238,0.34641 0,0.893555 c 2.03882,0 2.29996,0.195072 2.29996,1.79938 l 0,8.432453 c 0,1.40955 -0.34295,1.43787 -2.42581,1.43787 l 0,0.94075 c 1.00367,-0.0286 2.69639,-0.0912 3.44836,-0.0912 1.09807,0 2.19299,0.0598 3.25959,0.0912 l 0,-0.94075 c -2.07028,0 -2.07972,-0.16078 -2.07972,-1.40672 l 0,-11.502948 z m 0,-5.455404 c 0,-1.003676 -0.78028,-1.456746 -1.65181,-1.456746 -0.97222,0 -1.80914,0.742216 -1.80914,1.456746 0,0.84636 0.75197,2.004206 1.80914,2.004206 0.87782,0 1.65181,-0.793188 1.65181,-2.004206 z"
     inkscape:export-filename="C:\Users\Arnaud\Desktop\UnitCircle.png"
     inkscape:export-xdpi="69.755966"
     inkscape:export-ydpi="69.755966" />
  <path
     inkscape:connector-curvature="0"
     id="path54"
     style="fill:#000000;fill-rule:evenodd;stroke:none"
     d="m 115.74986,91.486005 0,8.400675 c 0,1.40955 -0.34609,1.43787 -2.45727,1.43787 l 0,0.94389 c 1.09806,-0.0318 2.69639,-0.0944 3.54275,-0.0944 0.8149,0 2.4447,0.0626 3.5113,0.0944 l 0,-0.94389 c -2.10174,0 -2.39121,-0.0283 -2.39121,-1.43787 l 0,-5.767205 c 0,-3.259588 2.19928,-5.093892 4.17832,-5.093892 1.97589,0 2.42896,1.730476 2.42896,3.558488 l 0,7.302609 c 0,1.40955 -0.35868,1.43787 -2.55482,1.43787 l 0,0.94389 c 1.09807,-0.0318 2.6964,-0.0944 3.54276,-0.0944 0.8149,0 2.44469,0.0626 3.51129,0.0944 l 0,-0.94389 c -1.62664,0 -2.41008,-0.0283 -2.44154,-0.96907 l 0.14473,-5.987446 c 0,-2.696396 -0.14473,-3.668609 -1.12009,-4.794992 -0.43419,-0.531728 -1.46933,-1.17987 -3.2879,-1.17987 -2.32513,0 -3.82278,1.356064 -4.71319,3.309929 l 0,-3.291051 -4.34507,0.346095 0,0.893241 c 2.19299,0 2.46986,0.229681 2.46986,1.831473 l -0.0189,0.0031 z"
     inkscape:export-filename="C:\Users\Arnaud\Desktop\UnitCircle.png"
     inkscape:export-xdpi="69.755966"
     inkscape:export-ydpi="69.755966" />
  <path
     inkscape:connector-curvature="0"
     id="path56"
     style="fill:#000000;fill-rule:evenodd;stroke:none"
     d="m 141.39866,89.683164 2.94496,0 c 0.62612,0 0.9376,0.04719 0.9376,-0.578923 0,-0.346096 -0.31148,-0.364973 -0.87467,-0.364973 l -2.75933,0 c 1.12953,-4.436312 1.2837,-5.059283 1.2837,-5.248377 0,-0.531413 -0.37756,-0.729946 -0.90928,-0.729946 -0.0944,0 -0.97222,0.02863 -1.25539,1.01343 l -1.22391,4.964893 -2.94496,0 c -0.62612,0 -0.94075,0.01888 -0.94075,0.613532 0,0.377558 0.25171,0.330364 0.87782,0.330364 l 2.75933,0 c -2.25591,8.944987 -2.38177,9.479862 -2.38177,10.046196 0,1.69272 1.19246,2.88486 2.88518,2.88486 3.19666,0 4.98377,-4.577577 4.98377,-4.826451 0,-0.314317 -0.25171,-0.314317 -0.37756,-0.314317 -0.28002,0 -0.31149,0.09439 -0.4688,0.437024 -1.34663,3.259904 -3.00474,4.071654 -4.07134,4.071654 -0.65758,0 -0.86209,-0.42507 -0.86209,-1.5008 0,-0.75197 0.022,-0.97252 0.0787,-1.503937 l 2.31883,-9.294229 z"
     inkscape:export-filename="C:\Users\Arnaud\Desktop\UnitCircle.png"
     inkscape:export-xdpi="69.755966"
     inkscape:export-ydpi="69.755966" />
  <path
     inkscape:connector-curvature="0"
     id="path60"
     style="fill:#000000;fill-rule:evenodd;stroke:none"
     d="m 181.58303,28.651356 c 0.12585,-0.437339 0.12585,-0.500265 0.12585,-0.720507 0,-0.563506 -0.43734,-0.865238 -0.90929,-0.865238 -0.31463,0 -0.8149,0.194757 -1.09806,0.676458 -0.0629,0.157002 -0.31464,1.129529 -0.43734,1.692721 -0.22024,0.814896 -0.43734,1.661256 -0.62612,2.507617 l -1.40955,5.641351 c -0.12585,0.468802 -1.47248,2.724713 -3.54276,2.724713 -1.59833,0 -1.98533,-1.413012 -1.98533,-2.59886 0,-1.441014 0.54746,-3.385755 1.64238,-6.144763 0.50027,-1.283698 0.56005,-1.629794 0.56005,-2.256226 0,-1.409551 -0.97536,-2.589421 -2.50447,-2.589421 -2.97327,0 -4.13741,4.562478 -4.13741,4.845647 0,0.314632 0.31463,0.314632 0.37756,0.314632 0.31463,0 0.34609,-0.06324 0.50026,-0.563506 0.84636,-2.944641 2.10174,-3.967195 3.1652,-3.967195 0.2517,0 0.71107,0.07866 0.71107,1.082334 0,0.783434 -0.27059,1.598331 -0.45937,2.192985 -1.25538,3.3222 -1.74306,5.109624 -1.74306,6.582102 0,2.790786 1.93499,3.728389 3.74727,3.728389 1.22392,0 2.28737,-0.532043 3.1652,-1.409551 -0.40902,1.629794 -0.78344,3.165198 -2.03882,4.826455 -0.81489,1.066287 -2.00735,1.93184 -3.44836,1.93184 -0.43734,0 -1.85004,-0.09124 -2.38177,-1.289991 0.50027,0 0.90929,0.01573 1.34663,-0.362142 0.31463,-0.282854 0.58521,-0.689044 0.58521,-1.283383 0,-0.972213 -0.8149,-1.186163 -1.11694,-1.186163 -0.72051,0 -1.75565,0.522289 -1.75565,2.126912 0,1.566868 1.37809,2.624031 3.32252,2.624031 3.22812,0 6.45624,-2.806517 7.33407,-6.29264 l 3.01103,-11.968601 z"
     inkscape:export-filename="C:\Users\Arnaud\Desktop\UnitCircle.png"
     inkscape:export-xdpi="69.755966"
     inkscape:export-ydpi="69.755966" />
  <path
     inkscape:connector-curvature="0"
     id="path62"
     style="fill:#000000;fill-rule:evenodd;stroke:none"
     d="m 304.87472,214.8726 c 0.18878,-0.81521 0.90929,-3.77873 3.10227,-3.77873 0.15417,0 0.90614,0.0783 1.56372,0.48768 -0.87467,0.157 -1.61091,0.94075 -1.61091,1.69272 0,0.50026 0.37441,0.99738 1.29628,0.99738 0.68905,0 1.53541,-0.53173 1.53541,-1.71789 0,-1.62979 -1.74936,-2.08916 -2.75618,-2.08916 -1.81857,0 -2.91664,1.67385 -3.29105,2.40065 -0.78344,-2.07028 -2.47616,-2.40065 -3.38544,-2.40065 -3.25959,0 -5.00894,4.05876 -5.00894,4.84534 0,0.31463 0.28002,0.31463 0.33665,0.31463 0.25171,0 0.3461,-0.0629 0.40902,-0.34641 1.06661,-3.3222 3.13374,-4.18429 4.20034,-4.18429 0.59466,0 1.69272,0.29229 1.69272,2.1804 0,0.97221 -0.53173,3.07081 -1.69272,7.45992 -0.50026,1.94443 -1.59833,3.31905 -2.97642,3.31905 -0.18563,0 -0.90614,-0.0595 -1.56372,-0.46848 0.78029,-0.15732 1.45675,-0.8149 1.45675,-1.69272 0,-0.84668 -0.67961,-1.01626 -1.14212,-1.01626 -0.94075,0 -1.68957,0.77682 -1.68957,1.73676 0,1.43787 1.54799,2.06714 2.91035,2.06714 2.07027,0 3.19666,-2.18984 3.29105,-2.37862 0.37756,1.16099 1.50079,2.37862 3.38544,2.37862 3.22498,0 4.85792,-4.03988 4.85792,-4.82331 0,-0.31463 -0.16361,-0.31463 -0.2171,-0.31463 -0.28317,0 -0.3461,0.12585 -0.40902,0.34609 -1.03514,3.35083 -3.1652,4.16541 -4.16888,4.16541 -1.22391,0 -1.72418,-1.03167 -1.72418,-2.13005 0,-0.68905 0.18878,-1.37778 0.53173,-2.75901 l 1.0666,-4.29158 z"
     inkscape:export-filename="C:\Users\Arnaud\Desktop\UnitCircle.png"
     inkscape:export-xdpi="69.755966"
     inkscape:export-ydpi="69.755966" />
  <path
     inkscape:connector-curvature="0"
     id="path64"
     style="fill:#000000;fill-rule:evenodd;stroke:none"
     d="m 166.97781,117.44051 c 0,-0.75197 0.0912,-0.70478 -0.62927,-0.70478 -1.94442,1.89409 -4.7006,1.88779 -5.70427,1.88779 l 0,0.9439 c 0.62926,0 2.49188,0.0343 4.13111,-0.78029 l 0,16.23816 c 0,1.12953 -0.0944,1.53226 -2.94181,1.53226 l -1.00367,0 0,0.94389 c 1.09806,-0.0947 3.82278,-0.0947 5.07816,-0.0947 1.25538,0 3.98009,0 5.07816,0.0947 l 0,-0.94389 -1.00368,0 c -2.82225,0 -3.00788,-0.35239 -3.00788,-1.53226 l 0.003,-17.58478 z"
     inkscape:export-filename="C:\Users\Arnaud\Desktop\UnitCircle.png"
     inkscape:export-xdpi="69.755966"
     inkscape:export-ydpi="69.755966" />
  <path
     style="fill:none;stroke:#000000;stroke-width:0.7;stroke-linecap:butt;stroke-linejoin:miter;stroke-opacity:1;stroke-miterlimit:4;stroke-dasharray:1.4,1.4;stroke-dashoffset:0"
     d="m 149.02682,89.685823 65.8663,0.07651 0.21799,105.456061"
     id="path3042"
     inkscape:connector-curvature="0"
     sodipodi:nodetypes="ccc"
     inkscape:export-filename="C:\Users\Arnaud\Desktop\UnitCircle.png"
     inkscape:export-xdpi="69.755966"
     inkscape:export-ydpi="69.755966" />
</svg>
